<?xml version="1.0" standalone="no"?><!DOCTYPE svg PUBLIC "-//W3C//DTD SVG 1.1//EN" "http://www.w3.org/Graphics/SVG/1.1/DTD/svg11.dtd"><svg t="1711353514171" class="icon" viewBox="0 0 1024 1024" version="1.1" xmlns="http://www.w3.org/2000/svg" p-id="1846" xmlns:xlink="http://www.w3.org/1999/xlink" width="128" height="128"><path d="M862.9 115H361.6c-27.7 0-50.1 22.4-50.1 50.1s22.4 50.1 50.1 50.1h451.1v451.1c0 27.7 22.4 50.1 50.1 50.1s50.1-22.4 50.1-50.1V165.1c0.1-27.7-22.3-50.1-50-50.1zM662.4 315.5H161.1c-27.7 0-50.1 22.4-50.1 50.1v501.3c0 27.7 22.4 50.1 50.1 50.1h501.3c27.7 0 50.1-22.4 50.1-50.1V365.6c0-27.7-22.4-50.1-50.1-50.1z m-50.1 501.3h-401v-401h401v401z" fill="#FEAD12" p-id="1847"></path></svg>