<?xml version="1.0" standalone="no"?><!DOCTYPE svg PUBLIC "-//W3C//DTD SVG 1.1//EN" "http://www.w3.org/Graphics/SVG/1.1/DTD/svg11.dtd"><svg t="1711695755842" class="icon" viewBox="0 0 1024 1024" version="1.1" xmlns="http://www.w3.org/2000/svg" p-id="1755" xmlns:xlink="http://www.w3.org/1999/xlink" width="128" height="128"><path d="M276.00000031 771.99999969c-19.99999969 0-36-16.00000031-36-36v-55.99999969H68c-12 0-28.00000031-7.99999969-31.99999969-19.99999969-4.00000031-16.00000031-4.00000031-28.00000031 3.99999938-40.00000031l208.00000031-276c7.99999969-12 24-16.00000031 40.00000031-12 16.00000031 4.00000031 24 19.99999969 24 36v240h31.99999969c19.99999969 0 36 16.00000031 36 36s-16.00000031 36-36 36H312.00000031v55.99999969c0 19.99999969-16.00000031 36-36 36z m-136.00000031-168h100.00000031V471.99999969l-100.00000031 132zM888.00000031 728c-19.99999969 0-36-16.00000031-36-36v-55.99999969h-172.00000031c-12 0-28.00000031-7.99999969-31.99999969-20.00000062-7.99999969-12-4.00000031-28.00000031 3.99999938-36l208.00000031-276c7.99999969-12 24-16.00000031 40.00000031-12 16.00000031 4.00000031 24 19.99999969 24 36v240h31.99999969c19.99999969 0 36 16.00000031 36 36s-16.00000031 36-36 36h-31.99999969v56.00000062c0 16.00000031-16.00000031 31.99999969-36 31.99999969zM752 564.00000031h100.00000031V432.00000031L752 564.00000031zM531.99999969 591.99999969c-43.99999969 0-79.99999969-24-111.99999938-63.99999938-28.00000031-36-40.00000031-88.00000031-40.00000031-136.00000031 0-52.00000031 16.00000031-100.00000031 40.00000031-136.00000031 28.00000031-40.00000031 67.99999969-64.00000031 111.99999938-63.99999938 43.99999969 0 79.99999969 24 112.00000031 63.99999938 28.00000031 36 40.00000031 88.00000031 40.00000031 136.00000031 0 52.00000031-16.00000031 100.00000031-40.00000031 136.00000031-31.99999969 43.99999969-72 64.00000031-112.00000031 63.99999938z m0-339.99999938c-52.00000031 0-91.99999969 64.00000031-91.99999969 139.99999969s43.99999969 139.99999969 91.99999969 139.99999969c52.00000031 0 91.99999969-64.00000031 92.00000062-139.99999969s-43.99999969-139.99999969-92.00000062-139.99999969z" fill="#978CFF" p-id="1756"></path><path d="M363.99999969 680a151.99999969 19.99999969 0 1 0 304.00000031 0 151.99999969 19.99999969 0 1 0-304.00000031 0Z" fill="#E3E5FC" p-id="1757"></path><path d="M39.99999969 812a151.99999969 19.99999969 0 1 0 304.00000031 0 151.99999969 19.99999969 0 1 0-304.00000031 0Z" fill="#E3E5FC" p-id="1758"></path><path d="M651.99999969 780.00000031a151.99999969 19.99999969 0 1 0 304.00000031 0 151.99999969 19.99999969 0 1 0-304.00000031 0Z" fill="#E3E5FC" p-id="1759"></path></svg>