<?xml version="1.0" standalone="no"?><!DOCTYPE svg PUBLIC "-//W3C//DTD SVG 1.1//EN" "http://www.w3.org/Graphics/SVG/1.1/DTD/svg11.dtd"><svg t="1725240056983" class="icon" viewBox="0 0 1024 1024" version="1.1" xmlns="http://www.w3.org/2000/svg" p-id="2605" xmlns:xlink="http://www.w3.org/1999/xlink" width="256" height="256"><path d="M357.08 473.3H148.22A116.22 116.22 0 0 1 32 357.08V148.22C32 84.02 84.02 32 148.22 32h208.86c64.2 0 116.22 52.02 116.22 116.22v208.86c0 64.2-52.02 116.22-116.22 116.22z" fill="#F2A81B" p-id="2606"></path><path d="M357.08 991.46H148.22A116.22 116.22 0 0 1 32 875.24v-208.8c0-64.2 52.02-116.22 116.22-116.22h208.86c64.2 0 116.22 52.02 116.22 116.22v208.8c0 64.2-52.02 116.22-116.22 116.22z" fill="#0BCD83" p-id="2607"></path><path d="M875.78 473.3h-208.56A116.22 116.22 0 0 1 551 357.08V148.22C551 84.02 603.02 32 667.22 32h208.56C939.98 32 992 84.02 992 148.22v208.86c0 64.2-52.02 116.22-116.22 116.22z" fill="#2178ED" p-id="2608"></path><path d="M953.24 634.16H589.76a38.76 38.76 0 1 1 0-77.52h363.48a38.76 38.76 0 0 1 0 77.52zM953.24 812.78H589.76a38.76 38.76 0 0 1 0-77.46h363.48a38.76 38.76 0 0 1 0 77.46zM953.24 991.46H589.76a38.76 38.76 0 0 1 0-77.46h363.48a38.76 38.76 0 0 1 0 77.46z" fill="#CFD8E3" p-id="2609"></path><path d="M357.08 473.3H148.22A116.22 116.22 0 0 1 32 357.08V148.22C32 84.02 84.02 32 148.22 32h208.86c64.2 0 116.22 52.02 116.22 116.22v208.86c0 64.2-52.02 116.22-116.22 116.22z" fill="#F2A81B" p-id="2610"></path><path d="M357.08 991.46H148.22A116.22 116.22 0 0 1 32 875.24v-208.8c0-64.2 52.02-116.22 116.22-116.22h208.86c64.2 0 116.22 52.02 116.22 116.22v208.8c0 64.2-52.02 116.22-116.22 116.22zM875.78 473.3h-208.56A116.22 116.22 0 0 1 551 357.08V148.22C551 84.02 603.02 32 667.22 32h208.56C939.98 32 992 84.02 992 148.22v208.86c0 64.2-52.02 116.22-116.22 116.22z" fill="#2178ED" p-id="2611"></path><path d="M953.24 634.16H589.76a38.76 38.76 0 1 1 0-77.52h363.48a38.76 38.76 0 0 1 0 77.52zM953.24 812.78H589.76a38.76 38.76 0 0 1 0-77.46h363.48a38.76 38.76 0 0 1 0 77.46zM953.24 991.46H589.76a38.76 38.76 0 0 1 0-77.46h363.48a38.76 38.76 0 0 1 0 77.46z" fill="#97A5B5" p-id="2612"></path></svg>