<?xml version="1.0" standalone="no"?><!DOCTYPE svg PUBLIC "-//W3C//DTD SVG 1.1//EN" "http://www.w3.org/Graphics/SVG/1.1/DTD/svg11.dtd"><svg t="1724230489693" class="icon" viewBox="0 0 1024 1024" version="1.1" xmlns="http://www.w3.org/2000/svg" p-id="2537" xmlns:xlink="http://www.w3.org/1999/xlink" width="256" height="256"><path d="M97.54548148 434.3277037c-14.32082963 0-25.85031111-11.65084445-25.85031111-25.85031111v-310.68918518c0-14.32082963 11.65084445-25.85031111 25.85031111-25.85031111h310.68918519c14.32082963 0 25.85031111 11.65084445 25.85031111 25.85031111v310.68918518c0 14.32082963-11.65084445 25.85031111-25.85031111 25.85031111h-310.68918519z" fill="#CEE8FF" p-id="2538"></path><path d="M408.23466667 97.78820741l0.12136296 310.56782222s0 0.12136297-0.12136296 0.12136296H97.78820741s-0.12136297 0-0.12136296-0.12136296V97.90957037s0-0.12136297 0.12136296-0.12136296h310.44645926m0-51.82198519h-310.68918519c-28.5202963 0-51.82198518 23.30168889-51.82198518 51.82198519v310.68918518c0 28.5202963 23.30168889 51.82198518 51.82198518 51.82198519h310.68918519c28.5202963 0 51.82198518-23.30168889 51.82198518-51.82198519v-310.68918518c0-28.5202963-23.30168889-51.82198518-51.82198518-51.82198519z" fill="#298DF7" p-id="2539"></path><path d="M97.54548148 952.18346667c-14.32082963 0-25.85031111-11.65084445-25.85031111-25.85031112v-310.68918518c0-14.32082963 11.65084445-25.85031111 25.85031111-25.85031112h310.68918519c14.32082963 0 25.85031111 11.65084445 25.85031111 25.85031112v310.68918518c0 14.32082963-11.65084445 25.85031111-25.85031111 25.85031112h-310.68918519z" fill="#CEE8FF" p-id="2540"></path><path d="M408.23466667 615.52260741c0 0.12136297 0 0.12136297 0 0l0.12136296 310.56782222s0 0.12136297-0.12136296 0.12136296H97.78820741s-0.12136297 0-0.12136296-0.12136296V615.64397037s0-0.12136297 0.12136296-0.12136296h310.44645926m0-51.70062223h-310.68918519c-28.5202963 0-51.82198518 23.30168889-51.82198518 51.82198519v310.68918518c0 28.5202963 23.30168889 51.82198518 51.82198518 51.8219852h310.68918519c28.5202963 0 51.82198518-23.30168889 51.82198518-51.8219852v-310.68918518c0-28.5202963-23.30168889-51.82198518-51.82198518-51.82198519z" fill="#298DF7" p-id="2541"></path><path d="M615.40124445 952.18346667c-14.32082963 0-25.85031111-11.65084445-25.85031112-25.85031112v-310.68918518c0-14.32082963 11.65084445-25.85031111 25.85031112-25.85031112h310.68918518c14.32082963 0 25.85031111 11.65084445 25.85031112 25.85031112v310.68918518c0 14.32082963-11.65084445 25.85031111-25.85031112 25.85031112h-310.68918518z" fill="#CEE8FF" p-id="2542"></path><path d="M925.96906667 615.52260741c0.12136297 0.12136297 0.12136297 0.12136297 0 0l0.12136296 310.56782222s0 0.12136297-0.12136296 0.12136296H615.52260741s-0.12136297 0-0.12136296-0.12136296V615.64397037s0-0.12136297 0.12136296-0.12136296h310.44645926m0.12136296-51.70062223h-310.68918518c-28.5202963 0-51.82198518 23.30168889-51.8219852 51.82198519v310.68918518c0 28.5202963 23.30168889 51.82198518 51.8219852 51.8219852h310.68918518c28.5202963 0 51.82198518-23.30168889 51.82198519-51.8219852v-310.68918518c0-28.5202963-23.30168889-51.82198518-51.82198519-51.82198519z" fill="#298DF7" p-id="2543"></path><path d="M848.5394963 66.47656297H692.95217778c-18.44717037 0-35.55934815 9.8304-44.9042963 25.85031111L570.25422222 227.16112592c-9.22358518 16.01991111-9.22358518 35.80207408 0 51.82198519l77.79365926 134.83425186c9.22358518 16.01991111 26.33576297 25.85031111 44.9042963 25.85031111h155.70868147c18.44717037 0 35.55934815-9.8304 44.9042963-25.85031111l77.6722963-134.83425186c9.22358518-16.01991111 9.22358518-35.80207408 0-51.82198519l-77.79365926-134.83425184c-9.22358518-15.89854815-26.33576297-25.85031111-44.90429629-25.85031111z" fill="#3C99FE" p-id="2544"></path><path d="M770.74583703 253.1328m-103.5226074 0a103.52260741 103.52260741 0 1 0 207.04521482 0 103.52260741 103.52260741 0 1 0-207.04521482 0Z" fill="#CEE8FF" p-id="2545"></path><path d="M330.56237037 356.65540741h-155.34459259c-14.19946667 0-25.85031111-11.65084445-25.85031111-25.85031111 0-14.19946667 11.65084445-25.85031111 25.85031111-25.85031112h155.34459259c14.19946667 0 25.85031111 11.65084445 25.85031111 25.85031112 0.12136297 14.19946667-11.52948148 25.85031111-25.85031111 25.85031111z" fill="#3C99FE" p-id="2546"></path><path d="M330.56237037 874.51117037h-155.34459259c-14.19946667 0-25.85031111-11.65084445-25.85031111-25.85031112 0-14.19946667 11.65084445-25.85031111 25.85031111-25.8503111h155.34459259c14.19946667 0 25.85031111 11.65084445 25.85031111 25.8503111 0.12136297 14.19946667-11.52948148 25.85031111-25.85031111 25.85031112z" fill="#3C99FE" p-id="2547"></path><path d="M848.41813333 874.51117037h-155.34459258c-14.19946667 0-25.85031111-11.65084445-25.85031112-25.85031112 0-14.19946667 11.65084445-25.85031111 25.85031112-25.8503111h155.34459258c14.19946667 0 25.85031111 11.65084445 25.85031112 25.8503111 0 14.19946667-11.65084445 25.85031111-25.85031112 25.85031112z" fill="#3C99FE" p-id="2548"></path></svg>