<?xml version="1.0" standalone="no"?><!DOCTYPE svg PUBLIC "-//W3C//DTD SVG 1.1//EN" "http://www.w3.org/Graphics/SVG/1.1/DTD/svg11.dtd"><svg t="1710726067006" class="icon" viewBox="0 0 1024 1024" version="1.1" xmlns="http://www.w3.org/2000/svg" p-id="1337" xmlns:xlink="http://www.w3.org/1999/xlink" width="128" height="128"><path d="M749.268293 311.945366c0-20.729756-20.08039-37.213659-45.805269-37.213659H295.561366c-25.100488 0-45.805268 16.483902-45.805268 37.213659v0.499512c0 20.729756 20.08039 37.213659 45.805268 37.213659h408.526049c25.100488 0 45.180878-16.983415 45.180878-37.713171zM549.463415 512.249756c0-20.729756-12.038244-37.213659-27.473171-37.213658H277.229268c-15.060293 0-27.473171 16.483902-27.47317 37.213658v0.524488c0 20.729756 12.038244 37.213659 27.47317 37.213658h245.13561c15.060293 0 27.098537-17.00839 27.098537-37.738146z" fill="#4990E2" p-id="1338"></path><path d="M574.439024 748.76878m37.463415 0l349.658537 0q37.463415 0 37.463414 37.463415l0 0q0 37.463415-37.463414 37.463415l-349.658537 0q-37.463415 0-37.463415-37.463415l0 0q0-37.463415 37.463415-37.463415Z" fill="#4990E2" p-id="1339"></path><path d="M824.195122 586.427317m0 37.463415l0 349.658536q0 37.463415-37.463415 37.463415l0 0q-37.463415 0-37.463414-37.463415l0-349.658536q0-37.463415 37.463414-37.463415l0 0q37.463415 0 37.463415 37.463415Z" fill="#4990E2" p-id="1340"></path><path d="M561.95122 936.585366H174.829268A62.439024 62.439024 0 0 1 112.390244 874.146341v-524.487804C112.390244 204.824976 229.800585 87.414634 374.634146 87.414634h474.536586A62.439024 62.439024 0 0 1 911.609756 149.853659v424.585365a37.463415 37.463415 0 0 0 74.926829 0v-424.585365A137.365854 137.365854 0 0 0 849.170732 12.487805h-474.536586C188.416 12.487805 37.463415 163.44039 37.463415 349.658537v524.487804A137.365854 137.365854 0 0 0 174.829268 1011.512195H561.95122a37.463415 37.463415 0 0 0 0-74.926829z" fill="#4990E2" p-id="1341"></path></svg>