<?xml version="1.0" standalone="no"?><!DOCTYPE svg PUBLIC "-//W3C//DTD SVG 1.1//EN" "http://www.w3.org/Graphics/SVG/1.1/DTD/svg11.dtd"><svg t="1711068515427" class="icon" viewBox="0 0 1024 1024" version="1.1" xmlns="http://www.w3.org/2000/svg" p-id="1605" xmlns:xlink="http://www.w3.org/1999/xlink" width="128" height="128"><path d="M636.342857 373.028571H387.657143c-36.571429 0-65.828571-29.257143-65.828572-65.828571V109.714286c0-36.571429 29.257143-65.828571 65.828572-65.828572h248.685714c36.571429 0 65.828571 29.257143 65.828572 65.828572v197.485714c0 36.571429-29.257143 65.828571-65.828572 65.828571zM387.657143 102.4c-7.314286 0-7.314286 0-7.314286 7.314286v197.485714c0 7.314286 0 7.314286 7.314286 7.314286h248.685714c7.314286 0 7.314286 0 7.314286-7.314286V109.714286c0-7.314286 0-7.314286-7.314286-7.314286H387.657143z" fill="#D72822" p-id="1606"></path><path d="M936.228571 921.6H687.542857c-21.942857 0-36.571429-14.628571-36.571428-36.571429V680.228571c0-21.942857 14.628571-36.571429 36.571428-36.571428h248.685714c21.942857 0 36.571429 14.628571 36.571429 36.571428V877.714286c0 21.942857-14.628571 43.885714-36.571429 43.885714z" fill="#F4B1B2" p-id="1607"></path><path d="M936.228571 950.857143H687.542857c-36.571429 0-65.828571-29.257143-65.828571-65.828572V680.228571c0-36.571429 29.257143-65.828571 65.828571-65.828571h248.685714c36.571429 0 65.828571 29.257143 65.828572 65.828571V877.714286c0 36.571429-29.257143 73.142857-65.828572 73.142857zM687.542857 672.914286c-7.314286 0-7.314286 0-7.314286 7.314285v204.8c0 7.314286 0 7.314286 7.314286 7.314286h248.685714c7.314286 0 7.314286-7.314286 7.314286-14.628571V680.228571c0-7.314286 0-7.314286-7.314286-7.314285H687.542857z" fill="#D72822" p-id="1608"></path><path d="M336.457143 921.6H87.771429c-21.942857 0-36.571429-14.628571-36.571429-36.571429V687.542857c0-21.942857 14.628571-36.571429 36.571429-36.571428h248.685714c21.942857 0 36.571429 14.628571 36.571428 36.571428v197.485714c0 21.942857-21.942857 36.571429-36.571428 36.571429z" fill="#F4B1B2" p-id="1609"></path><path d="M336.457143 950.857143H87.771429c-36.571429 0-65.828571-29.257143-65.828572-65.828572V687.542857c0-36.571429 29.257143-65.828571 65.828572-65.828571h248.685714c36.571429 0 65.828571 29.257143 65.828571 65.828571v197.485714c0 36.571429-36.571429 65.828571-65.828571 65.828572zM87.771429 680.228571c-7.314286 0-7.314286 0-7.314286 7.314286v197.485714c0 7.314286 0 7.314286 7.314286 7.314286h248.685714l7.314286-7.314286V687.542857c0-7.314286 0-7.314286-7.314286-7.314286H87.771429zM490.057143 351.085714h43.885714v131.657143h-43.885714zM797.257143 512h36.571428v117.028571h-36.571428z" fill="#D72822" p-id="1610"></path><path d="M190.171429 504.685714h43.885714v131.657143h-43.885714z" fill="#D72822" p-id="1611"></path><path d="M190.171429 468.114286h643.657142V512H190.171429z" fill="#D72822" p-id="1612"></path></svg>