<?xml version="1.0" standalone="no"?><!DOCTYPE svg PUBLIC "-//W3C//DTD SVG 1.1//EN" "http://www.w3.org/Graphics/SVG/1.1/DTD/svg11.dtd"><svg t="1710745177514" class="icon" viewBox="0 0 1024 1024" version="1.1" xmlns="http://www.w3.org/2000/svg" p-id="1240" xmlns:xlink="http://www.w3.org/1999/xlink" width="128" height="128"><path d="M301.24235549 680.63064291a34.15536981 34.15536981 0 0 0-34.52329074 34.52329188c0 19.25455303 15.14609778 34.46197134 34.52329074 34.46197134a34.15536981 34.15536981 0 0 0 34.46197248-34.52329187 34.15536981 34.15536981 0 0 0-34.52329188-34.46197135z m0-413.91157816a34.15536981 34.15536981 0 0 0-34.52329074 34.52329074c0 19.31587357 15.14609778 34.46197134 34.52329074 34.46197248a34.15536981 34.15536981 0 0 0 34.46197248-34.52329188 34.15536981 34.15536981 0 0 0-34.52329188-34.46197134z m0 206.95578851a34.15536981 34.15536981 0 0 0-34.52329074 34.52329188c0 19.25455303 15.14609778 34.46197134 34.52329074 34.46197134a34.15536981 34.15536981 0 0 0 34.46197248-34.52329074 34.15536981 34.15536981 0 0 0-34.52329188-34.46197248z m517.35881386-413.91157817H197.73380153a138.39976789 138.39976789 0 0 0-137.97052644 137.97052644V818.60116935a138.39976789 138.39976789 0 0 0 137.97052644 137.97052644H818.60116935a138.39976789 138.39976789 0 0 0 137.97052644-137.97052644V197.73380153a138.39976789 138.39976789 0 0 0-137.97052644-137.97052644zM887.58643257 818.60116935c0 37.95722467-31.02803854 68.98526322-68.98526322 68.98526322H197.73380153A69.16922368 69.16922368 0 0 1 128.74853831 818.60116935V197.73380153c0-37.95722467 31.02803854-68.98526322 68.98526322-68.98526322H818.60116935c37.95722467 0 68.98526322 31.02803854 68.98526322 68.98526322V818.60116935z m-172.49381831-551.8821046h-275.94105173a34.15536981 34.15536981 0 0 0-34.46197135 34.52329074c0 19.31587357 15.14609778 34.46197134 34.52329074 34.46197248h275.94105287a34.15536981 34.15536981 0 0 0 34.46197134-34.52329188 34.15536981 34.15536981 0 0 0-34.52329187-34.46197134z m0 206.95578851h-275.94105173a34.15536981 34.15536981 0 0 0-34.46197135 34.52329188c0 19.25455303 15.14609778 34.46197134 34.52329074 34.46197134h275.94105287a34.15536981 34.15536981 0 0 0 34.46197134-34.52329074 34.15536981 34.15536981 0 0 0-34.52329187-34.46197248z m0 206.95578965h-275.94105173a34.15536981 34.15536981 0 0 0-34.46197135 34.52329188c0 19.25455303 15.14609778 34.46197134 34.52329074 34.46197134h275.94105287a34.15536981 34.15536981 0 0 0 34.46197134-34.52329187 34.15536981 34.15536981 0 0 0-34.52329187-34.46197135z" fill="#FA9664" p-id="1241"></path></svg>