<?xml version="1.0" standalone="no"?><!DOCTYPE svg PUBLIC "-//W3C//DTD SVG 1.1//EN" "http://www.w3.org/Graphics/SVG/1.1/DTD/svg11.dtd"><svg t="1711352578325" class="icon" viewBox="0 0 1024 1024" version="1.1" xmlns="http://www.w3.org/2000/svg" p-id="1662" xmlns:xlink="http://www.w3.org/1999/xlink" width="128" height="128"><path d="M464.8339392 105.2013472h94.19420907V623.06262614c0 14.06707093-9.37804693 23.5830304-23.5830304 23.5830304h-47.02814827c-14.06707093 0-23.5830304-9.37804693-23.5830304-23.5830304V105.2013472z m0 0" fill="#1890FF" p-id="1663"></path><path d="M295.47744107 359.3740064l-32.96107734-32.96107733c-9.37804693-9.37804693-9.37804693-23.5830304 0-32.96107733l233.07205334-233.07205334c9.37804693-9.37804693 23.5830304-9.37804693 32.9610784 0l49.3726592 49.3726592-249.6215488 249.6215488c-9.37804693 9.37804693-23.44511787 9.37804693-32.8231648 0z m0 0" fill="#1890FF" p-id="1664"></path><path d="M446.07784533 109.89037014L495.45050453 60.3797984c9.37804693-9.37804693 23.5830304-9.37804693 32.9610784 0l233.07205334 233.07205334c9.37804693 9.37804693 9.37804693 23.5830304 0 32.96107733l-32.96107734 32.96107733c-9.37804693 9.37804693-23.5830304 9.37804693-32.96107733 0L446.07784533 109.89037014z m489.5892256 371.8119872h-47.02814826c-14.06707093 0-23.5830304 9.37804693-23.5830304 23.5830304v306.027744c0 14.06707093-9.37804693 23.5830304-23.5830304 23.5830304H182.3892256c-14.06707093 0-23.5830304-9.37804693-23.5830304-23.5830304V505.28538774c0-14.06707093-9.37804693-23.5830304-23.5830304-23.5830304h-46.89023573c-14.06707093 0-23.5830304 9.37804693-23.5830304 23.5830304v400.08403946c0 14.06707093 9.37804693 23.5830304 23.5830304 23.5830304h847.33414186c14.06707093 0 23.5830304-9.37804693 23.5830304-23.5830304V505.28538774c-0.13791253-14.06707093-9.51595947-23.5830304-23.5830304-23.5830304z m0 0" fill="#1890FF" p-id="1665"></path><path d="M253.00040427 575.89656534H111.77804693v-94.194208h141.22235734c14.06707093 0 23.5830304 9.37804693 23.5830304 23.5830304v47.0281472c0 11.86047147-9.37804693 23.5830304-23.5830304 23.5830304z m659.08363626 0H770.8616832c-14.06707093 0-23.5830304-9.37804693-23.5830304-23.5830304v-47.0281472c0-14.06707093 9.37804693-23.5830304 23.5830304-23.5830304h141.22235733v94.194208z m0 0" fill="#1890FF" p-id="1666"></path></svg>