<?xml version="1.0" standalone="no"?><!DOCTYPE svg PUBLIC "-//W3C//DTD SVG 1.1//EN" "http://www.w3.org/Graphics/SVG/1.1/DTD/svg11.dtd"><svg t="1724200922582" class="icon" viewBox="0 0 1024 1024" version="1.1" xmlns="http://www.w3.org/2000/svg" p-id="2497" xmlns:xlink="http://www.w3.org/1999/xlink" width="256" height="256"><path d="M869.33333333 988.8H154.66666667a53.33333333 53.33333333 0 0 1-53.33333334-53.33333333V452.48a53.33333333 53.33333333 0 0 1 53.33333334-53.33333333h89.58933333V301.86666667c0-147.27573333 119.39093333-266.66666667 266.66666667-266.66666667s266.66666667 119.39093333 266.66666666 266.66666667v97.28H869.33333333a53.33333333 53.33333333 0 0 1 53.33333334 53.33333333V935.46666667a53.33333333 53.33333333 0 0 1-53.33333334 53.33333333zM713.58933333 301.86666667c0-111.9296-90.73706667-202.66666667-202.66666666-202.66666667s-202.66666667 90.73706667-202.66666667 202.66666667v97.28h405.33333333V301.86666667zM858.66666667 484.26666667a21.33333333 21.33333333 0 0 0-21.33333334-21.33333334H186.66666667a21.33333333 21.33333333 0 0 0-21.33333334 21.33333334v419.2a21.33333333 21.33333333 0 0 0 21.33333334 21.33333333h650.66666666a21.33333333 21.33333333 0 0 0 21.33333334-21.33333333V484.26666667zM512 784a32 32 0 0 1-32-32V635.73333333a32 32 0 0 1 64 0v116.26666667a32 32 0 0 1-32 32z" fill="#333333" p-id="2498"></path></svg>