<?xml version="1.0" standalone="no"?><!DOCTYPE svg PUBLIC "-//W3C//DTD SVG 1.1//EN" "http://www.w3.org/Graphics/SVG/1.1/DTD/svg11.dtd"><svg t="1712844267094" class="icon" viewBox="0 0 1024 1024" version="1.1" xmlns="http://www.w3.org/2000/svg" p-id="1477" xmlns:xlink="http://www.w3.org/1999/xlink" width="128" height="128"><path d="M512 962C263.47727305 962 62 760.52272695 62 512S263.47727305 62 512 62s450 201.47727305 450 450-201.47727305 450-450 450z m203.4-613.63636347c-11.61818174 0-22.17272695 4.82727305-29.78181826 12.6l-243.77727305 251.34545478-103.45909043-107.38636436a41.48181826 41.48181826 0 0 0-29.78181826-12.64090869c-23.19545479 0-42.05454521 19.30909131-42.05454521 43.15909043 0 11.90454521 4.70454521 22.70454521 12.31363652 30.47727305l133.24090869 137.98636347a41.35909131 41.35909131 0 0 0 59.52272695 0l273.47727305-281.86363652c7.65-7.81363652 12.35454521-18.61363653 12.35454521-30.51818174C757.45454521 367.71363652 738.59545479 348.36363653 715.4 348.36363653z" fill="#3366FF" p-id="1478"></path></svg>