<?xml version="1.0" standalone="no"?><!DOCTYPE svg PUBLIC "-//W3C//DTD SVG 1.1//EN" "http://www.w3.org/Graphics/SVG/1.1/DTD/svg11.dtd"><svg t="1711680259291" class="icon" viewBox="0 0 1024 1024" version="1.1" xmlns="http://www.w3.org/2000/svg" p-id="1722" xmlns:xlink="http://www.w3.org/1999/xlink" width="128" height="128"><path d="M194.50981778 828.52624092A449.5822919 449.5822919 0 0 0 511.83934297 960.26490547a449.5822919 449.5822919 0 0 0 449.13245273-449.19671573 52.88825391 52.88825391 0 0 0-105.77650869 0A343.74152109 343.74152109 0 0 1 511.83934297 854.42413467a343.74152109 343.74152109 0 0 1-343.35594404-343.35594493A343.74152109 343.74152109 0 0 1 511.83934297 167.7122457a343.80578409 343.80578409 0 0 1 208.21135341 70.36772608l-40.42127812-2.57051073a52.88825391 52.88825391 0 1 0-6.68332793 105.5194576l226.91181797 14.45912138 14.3948584-226.97608007a53.01677988 53.01677988 0 0 0-100.31417315-26.66904697 52.50267773 52.50267773 0 0 0-5.20528359 19.98571992l-3.14887588 49.48232783A449.71081787 449.71081787 0 0 0 511.83934297 62a449.5822919 449.5822919 0 0 0-449.00392676 449.19671573 449.5822919 449.5822919 0 0 0 131.67440156 317.3937873z" fill="#3894FF" p-id="1723"></path></svg>