<?xml version="1.0" standalone="no"?><!DOCTYPE svg PUBLIC "-//W3C//DTD SVG 1.1//EN" "http://www.w3.org/Graphics/SVG/1.1/DTD/svg11.dtd"><svg t="1710830177303" class="icon" viewBox="0 0 1024 1024" version="1.1" xmlns="http://www.w3.org/2000/svg" p-id="1334" xmlns:xlink="http://www.w3.org/1999/xlink" width="128" height="128"><path d="M345.55936541 428.7796827v-83.22031729a166.44063459 166.44063459 0 1 1 332.88126918 0v83.22031729h41.61015922a41.61015922 41.61015922 0 0 1 41.61015808 41.61015808v249.66095303a41.61015922 41.61015922 0 0 1-41.61015808 41.61015808H303.94920619a41.61015922 41.61015922 0 0 1-41.61015808-41.61015808v-249.66095303a41.61015922 41.61015922 0 0 1 41.61015808-41.61015808h41.61015922z m83.22031729 0h166.4406346v-83.22031729a83.2203173 83.2203173 0 0 0-166.4406346 0v83.22031729z m-83.22031729 83.2203173v166.44063459h332.88126918v-166.44063459h-332.88126918z m458.6271687-296.26432967A414.77006222 414.77006222 0 0 0 512 95.89841237C282.18709333 95.89841237 95.89841237 282.18709333 95.89841237 512s186.28868096 416.10158763 416.10158763 416.10158763 416.10158763-186.28868096 416.10158763-416.10158763h83.2203173c0 275.75052174-223.57138318 499.32190493-499.32190493 499.32190493S12.67809507 787.75052174 12.67809507 512 236.24947826 12.67809507 512 12.67809507c136.85581255 0 260.85408541 55.05024 351.02329856 144.22081082l55.79922318-55.79922319 29.41838223 205.97028523-205.97028523-29.41838222 61.91591537-61.91591538z" fill="#808BB5" p-id="1335"></path></svg>