<?xml version="1.0" standalone="no"?><!DOCTYPE svg PUBLIC "-//W3C//DTD SVG 1.1//EN" "http://www.w3.org/Graphics/SVG/1.1/DTD/svg11.dtd"><svg t="1718155787761" class="icon" viewBox="0 0 1024 1024" version="1.1" xmlns="http://www.w3.org/2000/svg" p-id="4532" xmlns:xlink="http://www.w3.org/1999/xlink" width="200" height="200"><path d="M953.6 960l-76.8-67.2c-19.2-19.2-44.8-28.8-73.6-28.8-28.8 0-54.4 12.8-76.8 32l-44.8 44.8c-6.4 6.4-16 9.6-25.6 9.6-9.6 0-19.2-3.2-25.6-9.6L588.8 896c-19.2-19.2-48-32-76.8-32-28.8 0-54.4 9.6-76.8 32l-48 48c-12.8 12.8-35.2 12.8-48 0L291.2 896c-19.2-19.2-48-32-76.8-32-28.8 0-54.4 9.6-73.6 32l-73.6 64c-16 12.8-16 35.2-3.2 51.2s35.2 16 51.2 3.2L192 947.2c12.8-12.8 35.2-12.8 48 0L288 992c19.2 19.2 48 32 76.8 32 28.8 0 54.4-9.6 76.8-32l48-48c12.8-12.8 35.2-12.8 48 0l44.8 44.8c19.2 19.2 48 32 76.8 32 28.8 0 54.4-12.8 76.8-32l44.8-44.8c12.8-12.8 35.2-12.8 48 0l76.8 67.2c6.4 6.4 16 9.6 22.4 9.6 9.6 0 19.2-3.2 28.8-12.8 12.8-12.8 12.8-35.2-3.2-48z" fill="#1296db" p-id="4533"></path><path d="M966.4 438.4l-128-54.4V220.8c0-16-9.6-28.8-22.4-35.2L585.6 96v-22.4C585.6 32 553.6 0 512 0c-41.6 0-73.6 32-73.6 73.6V96L204.8 188.8c-16 6.4-22.4 19.2-22.4 32V384l-124.8 54.4c-19.2 9.6-25.6 32-12.8 48l192 307.2c3.2 6.4 9.6 9.6 16 12.8 35.2 6.4 64 22.4 89.6 48l3.2 3.2c9.6 9.6 28.8 9.6 38.4 0l3.2-3.2c32-32 76.8-51.2 124.8-51.2s92.8 19.2 124.8 51.2c9.6 9.6 28.8 9.6 38.4 0 25.6-25.6 60.8-44.8 96-51.2 6.4 0 12.8-6.4 19.2-12.8l192-307.2c9.6-12.8 3.2-35.2-16-44.8zM537.6 252.8c-16-6.4-35.2-6.4-51.2 0L252.8 352V246.4L512 147.2l252.8 99.2V352l-227.2-99.2z" fill="#1296db" p-id="4534"></path></svg>