<?xml version="1.0" standalone="no"?><!DOCTYPE svg PUBLIC "-//W3C//DTD SVG 1.1//EN" "http://www.w3.org/Graphics/SVG/1.1/DTD/svg11.dtd"><svg t="1718156465371" class="icon" viewBox="0 0 1024 1024" version="1.1" xmlns="http://www.w3.org/2000/svg" p-id="4525" xmlns:xlink="http://www.w3.org/1999/xlink" width="200" height="200"><path d="M995.2 995.2H512c-25.6 0-28.8-41.6-28.8-60.8 9.6-28.8 32-51.2 57.6-60.8 32-12.8 44.8-9.6 76.8-22.4 9.6-3.2 16-3.2 25.6-6.4 9.6-6.4 19.2-28.8 25.6-41.6l12.8-3.2c-3.2-16-12.8-16-16-25.6 0-16-3.2-32-3.2-48 0 0-12.8 0-12.8-3.2-9.6-12.8-16-48-19.2-67.2 0-6.4 9.6-12.8 6.4-28.8-19.2-80 6.4-118.4 48-131.2 28.8-9.6 80-32 128-3.2l12.8 9.6 19.2 3.2c9.6 6.4 16 22.4 16 22.4 6.4 19.2 6.4 22.4 6.4 41.6 0 6.4-6.4 44.8-3.2 54.4 0 9.6 3.2 9.6 6.4 16 6.4 12.8 3.2 32 3.2 44.8 0 6.4-3.2 19.2-9.6 22.4-6.4 6.4-16 6.4-19.2 12.8-6.4 9.6-3.2 25.6-6.4 38.4-3.2 12.8-16 16-16 32 6.4 0 9.6 0 16 3.2 6.4 12.8 16 35.2 25.6 41.6 9.6 3.2 16 3.2 25.6 6.4 32 12.8 44.8 9.6 76.8 22.4 28.8 12.8 48 32 57.6 60.8 0 32-9.6 70.4-28.8 70.4zM656 448c-48 16-108.8 60.8-86.4 156.8 3.2 16-9.6 25.6-9.6 32 3.2 19.2 9.6 92.8 35.2 102.4 0 28.8-3.2 48 0 57.6-6.4 12.8-9.6 6.4-19.2 12.8-9.6 3.2-22.4 6.4-32 9.6-38.4 16-54.4 22.4-89.6 35.2-25.6 9.6-28.8 51.2-28.8 86.4H150.4L99.2 736 6.4 521.6c-12.8-32 0-64 35.2-76.8l76.8-41.6V265.6c0-6.4 131.2-134.4 134.4-134.4H352c0 6.4 6.4 0 0 0V60.8c0-6.4 28.8-35.2 35.2-35.2h134.4c6.4 0 35.2 28.8 35.2 35.2V128c-6.4 0 0 6.4 0 0h102.4c6.4 0 134.4 131.2 134.4 134.4v134.4l3.2 28.8c-57.6-6.4-105.6 9.6-140.8 22.4z m70.4-150.4s-96-102.4-102.4-102.4H284.8c-6.4 0-102.4 102.4-102.4 102.4 0 6.4-3.2 70.4 0 67.2l236.8-102.4h70.4l236.8 102.4c3.2 3.2 0-60.8 0-67.2z" fill="#1296db" p-id="4526"></path></svg>