<?xml version="1.0" standalone="no"?><!DOCTYPE svg PUBLIC "-//W3C//DTD SVG 1.1//EN" "http://www.w3.org/Graphics/SVG/1.1/DTD/svg11.dtd"><svg t="1712795861538" class="icon" viewBox="0 0 1024 1024" version="1.1" xmlns="http://www.w3.org/2000/svg" p-id="1417" xmlns:xlink="http://www.w3.org/1999/xlink" width="128" height="128"><path d="M549.89456768 654.94049573a47.37024492 47.37024492 0 0 0-75.77843291 0L284.6584206 907.47322718a46.92818497 46.92818497 0 0 0-8.93427011 21.21889219 47.23064737 47.23064737 0 0 0 11.51683242 38.85476836 46.99798417 46.99798417 0 0 0 23.49899209 14.28552597 48.04496895 48.04496895 0 0 0 23.03366572 0.11633203 47.32371211 47.32371211 0 0 0 26.6632128-17.56607871l151.55686494-202.09133057 151.55686493 202.09133057a47.20738096 47.20738096 0 0 0 40.13441632 17.61261064 46.90491855 46.90491855 0 0 0 21.52135459-6.84030058 47.9053705 47.9053705 0 0 0 15.89090185-16.00723388 46.83511934 46.83511934 0 0 0 6.70070303-21.56788653 47.97516972 47.97516972 0 0 0-2.39643194-17.96160586 47.99843614 47.99843614 0 0 0-6.16557743-12.14502363l-189.34138213-252.53273145z" fill="#5D9CF9" p-id="1418"></path><path d="M133.10155567 209.66949827a63.56361006 63.56361006 0 0 1 10.63271249-35.08562373 60.81818291 60.81818291 0 0 1 7.86401895-9.56246133 64.86652442 64.86652442 0 0 1 9.56246133-7.86401894 63.61014287 63.61014287 0 0 1 35.08562373-10.6327125h631.51795898a63.56361006 63.56361006 0 0 1 35.08562286 10.6327125 60.93451494 60.93451494 0 0 1 9.56246132 7.86401894 64.86652442 64.86652442 0 0 1 7.86401894 9.53919492 63.79627324 63.79627324 0 0 1 10.3302501 28.92004629c0.20939678 2.04743672 0.3024624 4.11813984 0.3024624 6.18884385v473.63265264a116.89003565 116.89003565 0 0 1-0.6049248 12.37768682 115.86631641 115.86631641 0 0 1-1.81477353 12.26135477 113.19068935 113.19068935 0 0 1-3.02462227 12.02869249 117.40189482 117.40189482 0 0 1-6.67743662 17.33341465 132.57154073 132.57154073 0 0 1-9.1669333 16.17009785 139.0861125 139.0861125 0 0 1-7.37542617 9.93472295 147.74118662 147.74118662 0 0 1-8.3293462 9.19019971 130.33797276 130.33797276 0 0 1-14.07612831 12.14502363 139.0861125 139.0861125 0 0 1-10.28371729 6.8868334 156.74525596 156.74525596 0 0 1-10.9351749 5.81658222 131.98988232 131.98988232 0 0 1-17.33341465 6.70070215 116.91330117 116.91330117 0 0 1-12.0286916 3.02462314 118.70480918 118.70480918 0 0 1-12.26135567 1.81477354 117.65782442 117.65782442 0 0 1-12.37768681 0.60492481H259.39118779a116.91330117 116.91330117 0 0 1-12.37768681-0.60492481 116.07571406 116.07571406 0 0 1-12.26135567-1.81477354 112.9812917 112.9812917 0 0 1-12.02869159-3.02462314 117.634558 117.634558 0 0 1-17.33341466-6.67743574 131.98988232 131.98988232 0 0 1-16.17009873-9.16693418 139.29551016 139.29551016 0 0 1-9.93472207-7.37542617 148.50897627 148.50897627 0 0 1-9.1901997-8.32934531 131.01269677 131.01269677 0 0 1-12.14502364-14.07612921 141.15681563 141.15681563 0 0 1-6.88683339-10.28371728 155.18641201 155.18641201 0 0 1-5.83984864-10.93517402 131.98988232 131.98988232 0 0 1-6.67743662-17.33341465 117.634558 117.634558 0 0 1-3.02462226-12.02869249 116.7271708 116.7271708 0 0 1-1.81477354-12.26135477 118.42561318 118.42561318 0 0 1-0.6049248-12.37768682V209.66949827z" fill="#CCE1FF" p-id="1419"></path><path d="M709.50158193 362.80847356a35.5509501 35.5509501 0 0 1 6.39824063 8.65507412 38.92456758 38.92456758 0 0 1 2.76869267 6.65417022 37.80778447 37.80778447 0 0 1 0.8608544 17.82200743 37.99391484 37.99391484 0 0 1-2.09396953 6.88683339 38.92456758 38.92456758 0 0 1-7.93381817 11.91236045l-146.99666425 146.99666426a36.52813565 36.52813565 0 0 1-22.35894171 10.56291328 35.5509501 35.5509501 0 0 1-14.26225956-1.39597999 39.66908994 39.66908994 0 0 1-12.63361641-6.74723495 36.52813565 36.52813565 0 0 1-2.67562793-2.41969834l-72.12561855-71.98602099-72.12561944 72.12561855a40.36708037 40.36708037 0 0 1-5.58391905 4.58346708 37.45878925 37.45878925 0 0 1-6.35170693 3.4201503 35.06235732 35.06235732 0 0 1-14.07612919 2.79195908 31.525875 31.525875 0 0 1-7.21256221-0.69798955 38.50577403 38.50577403 0 0 1-16.17009785-7.63135576 40.36708037 40.36708037 0 0 1-5.11859268-5.11859267 36.10934209 36.10934209 0 0 1-5.51411982-9.23673252 34.06190537 34.06190537 0 0 1-2.76869268-14.09939474 34.06190537 34.06190537 0 0 1 1.60537588-10.67924531 33.317383 33.317383 0 0 1 2.76869355-6.67743574c0.55839199-1.07025117 1.18658232-2.09396953 1.86130635-3.09442148a43.74069786 43.74069786 0 0 1 4.60673262-5.58391904l97.99777705-97.97451065a36.01627646 36.01627646 0 0 1 11.91235957-7.95708369 38.18004521 38.18004521 0 0 1 17.65914345-2.60582871 38.97110039 38.97110039 0 0 1 10.44658214 2.60582871 38.92456758 38.92456758 0 0 1 11.91236044 7.95708369l72.12561856 72.12561943 120.98490909-120.98490908a35.50441729 35.50441729 0 0 1 8.65507411-6.42150703 43.3451707 43.3451707 0 0 1 6.65417022-2.74542626 37.80778447 37.80778447 0 0 1 17.82200742-0.8608544 37.80778447 37.80778447 0 0 1 10.14411973 3.60628066 41.92592432 41.92592432 0 0 1 5.97944618 4.00180869c0.93065273 0.74452237 1.81477354 1.55884394 2.67562794 2.41969834l0.16286396-0.23266318z" fill="#EC532B" p-id="1420"></path><path d="M133.10155567 83.33333333a62.95868526 62.95868526 0 0 0-44.67135059 18.49673144 63.07501729 63.07501729 0 0 0-4.14140713 84.68943663 63.09828369 63.09828369 0 0 0 48.81275772 23.10346406h757.80759111a62.98195166 62.98195166 0 0 0 48.81275772-23.08019854 62.86561963 62.86561963 0 0 0 14.3320579-40.06461797A63.19134844 63.19134844 0 0 0 890.90914678 83.33333333H133.10155567z" fill="#004BBC" p-id="1421"></path></svg>