<?xml version="1.0" standalone="no"?><!DOCTYPE svg PUBLIC "-//W3C//DTD SVG 1.1//EN" "http://www.w3.org/Graphics/SVG/1.1/DTD/svg11.dtd"><svg t="1712065441926" class="icon" viewBox="0 0 1024 1024" version="1.1" xmlns="http://www.w3.org/2000/svg" p-id="3008" xmlns:xlink="http://www.w3.org/1999/xlink" width="128" height="128"><path d="M657.408 0h-512c-45.056 0-81.408 36.864-81.408 81.408V942.08c0 45.056 36.864 81.408 81.408 81.408h732.672c45.056 0 81.408-36.864 81.408-81.408V324.608L657.408 0zM262.656 437.76c0-19.456 12.8-32.256 32.256-32.256h288.256c19.456 0 32.256 12.8 32.256 32.256 0 25.6-12.8 38.4-32.256 38.4H294.4c-19.456 0-32.256-12.8-32.256-32.256v-6.144z m460.8 384H294.4c-19.456 0-32.256-12.8-32.256-32.256V783.36c0-19.456 12.8-32.256 32.256-32.256h429.056c19.456 0 32.256 12.8 32.256 32.256-0.512 25.6-13.312 38.4-32.256 38.4z m0-173.056H294.4c-19.456 0-32.256-12.8-32.256-32.256v-6.656c0-12.8 19.456-25.6 38.4-32.256h429.056c19.456 0 32.256 12.8 32.256 32.256 0 26.112-12.8 38.912-38.4 38.912z" fill="#FB602E" p-id="3009"></path><path d="M960 326.656v15.872h-204.8s-100.864-20.992-97.792-107.008c0 0 3.072 91.136 96.256 91.136h206.336z" fill="#6B0D12" p-id="3010"></path><path d="M657.408 0v233.472c0 27.136 17.408 92.672 97.792 92.672h204.8L657.408 0z" fill="#FCAC90" p-id="3011"></path></svg>