<?xml version="1.0" standalone="no"?><!DOCTYPE svg PUBLIC "-//W3C//DTD SVG 1.1//EN" "http://www.w3.org/Graphics/SVG/1.1/DTD/svg11.dtd"><svg t="1697764571636" class="icon" viewBox="0 0 1024 1024" version="1.1" xmlns="http://www.w3.org/2000/svg" p-id="4889" xmlns:xlink="http://www.w3.org/1999/xlink" width="32" height="32"><path d="M683.287273 272.756364a20.48 20.48 0 0 0-23.272728-13.730909l-293.701818 41.658181a20.014545 20.014545 0 0 0-16.756363 14.196364L266.472727 584.145455a20.247273 20.247273 0 0 0 9.774546 23.272727l272.290909 147.316363a20.48 20.48 0 0 0 25.134545-4.18909l190.370909-210.85091a20.014545 20.014545 0 0 0 4.189091-20.48z m230.865454 251.578181l-130.327272-379.810909a43.054545 43.054545 0 0 0-46.545455-28.858181L284.625455 179.665455A43.287273 43.287273 0 0 0 249.250909 209.454545L121.716364 624.174545A43.752727 43.752727 0 0 0 142.429091 674.909091l417.512727 226.443636a43.985455 43.985455 0 0 0 52.829091-9.076363l292.538182-325.818182a43.985455 43.985455 0 0 0 8.843636-42.123637z m-77.730909 16.523637l-251.345454 279.272727a19.083636 19.083636 0 0 1-23.272728 4.189091L207.825455 631.854545a19.083636 19.083636 0 0 1-9.309091-23.272727l108.218181-351.883636a19.316364 19.316364 0 0 1 15.825455-13.498182L709.818182 189.207273a19.083636 19.083636 0 0 1 20.945454 12.8l109.381819 319.767272a19.083636 19.083636 0 0 1-3.723637 19.083637z" fill="#FF6320" p-id="4890"></path></svg>