<svg width="19" height="4" viewBox="0 0 19 4" fill="none" xmlns="http://www.w3.org/2000/svg">
<path id="Vector" d="M17.2188 0.28125C16.8847 0.281864 16.5581 0.379706 16.2788 0.562832C15.9995 0.745959 15.7795 1.00645 15.6458 1.3125H3.66675C3.53292 1.0065 3.31293 0.746061 3.03361 0.562945C2.7543 0.379829 2.42774 0.281951 2.09375 0.28125C1.63808 0.281796 1.20122 0.463053 0.879013 0.785263C0.556803 1.10747 0.375546 1.54433 0.375 2C0.375 2.94806 1.14638 3.71875 2.09375 3.71875C2.42779 3.71831 2.75447 3.62054 3.03383 3.43739C3.31319 3.25424 3.53313 2.99366 3.66675 2.6875H15.6451C15.7787 2.99366 15.9986 3.25424 16.278 3.43739C16.5573 3.62054 16.884 3.71831 17.2181 3.71875C18.1661 3.71875 18.9368 2.94806 18.9368 2C18.9366 1.54433 18.7556 1.10737 18.4334 0.785104C18.1113 0.462835 17.6744 0.281614 17.2188 0.28125Z" fill="#4E9AF8"/>
</svg>
