<?xml version="1.0" standalone="no"?><!DOCTYPE svg PUBLIC "-//W3C//DTD SVG 1.1//EN" "http://www.w3.org/Graphics/SVG/1.1/DTD/svg11.dtd"><svg t="1697764553346" class="icon" viewBox="0 0 1024 1024" version="1.1" xmlns="http://www.w3.org/2000/svg" p-id="4585" xmlns:xlink="http://www.w3.org/1999/xlink" width="32" height="32"><path d="M486.4 790.4c201.6 22.4 371.2-137.6 371.2-332.8 0-182.4-144-329.6-323.2-336v96c137.6 6.4 243.2 128 227.2 268.8-12.8 108.8-102.4 195.2-211.2 208-144 16-268.8-96-268.8-240 0-41.6 9.6-80 28.8-115.2 3.2-3.2 0-9.6-3.2-12.8l-64-44.8s-6.4 0-9.6 3.2c-35.2 60.8-54.4 134.4-44.8 214.4 22.4 153.6 147.2 275.2 297.6 291.2z" fill="#E83835" p-id="4586"></path><path d="M528 326.4c3.2 3.2 6.4 0 6.4-3.2V32c0-3.2-3.2-6.4-6.4-3.2L384 172.8c-3.2 3.2-3.2 6.4 0 9.6l144 144zM937.6 707.2h-86.4c-3.2 0-6.4 0-6.4 3.2a421.44 421.44 0 0 1-640 0c-3.2-3.2-3.2-3.2-6.4-3.2H112c-6.4 0-9.6 3.2-9.6 9.6v236.8c0 6.4 3.2 9.6 9.6 9.6h825.6c6.4 0 9.6-3.2 9.6-9.6v-236.8c0-6.4-3.2-9.6-9.6-9.6zM188.8 880c0 3.2-3.2 6.4-6.4 6.4h-25.6c-3.2 0-6.4-3.2-6.4-6.4v-73.6c0-3.2 3.2-6.4 6.4-6.4h22.4c3.2 0 6.4 3.2 6.4 6.4v73.6z m710.4 0c0 3.2-3.2 6.4-6.4 6.4h-22.4c-3.2 0-6.4-3.2-6.4-6.4v-73.6c0-3.2 3.2-6.4 6.4-6.4h22.4c3.2 0 6.4 3.2 6.4 6.4v73.6z" fill="#E83835" p-id="4587"></path></svg>