<svg width="15" height="14" viewBox="0 0 15 14" fill="none" xmlns="http://www.w3.org/2000/svg">
<g id="&#231;&#148;&#187;&#231;&#159;&#169;&#229;&#189;&#162; 1" clip-path="url(#clip0_520_6376)">
<path id="Vector" d="M13.58 13.9932C13.2752 13.9932 12.9855 13.9028 12.7423 13.7319C12.5071 13.5666 12.3302 13.3313 12.2438 13.0692L12.2422 13.0644H2.83015L2.82855 13.0692C2.74234 13.3312 2.56525 13.5665 2.33006 13.7319C2.08685 13.9029 1.79719 13.9932 1.49239 13.9932C0.721568 13.9932 0.0943379 13.4049 0.0943378 12.682C0.0943378 12.16 0.424191 11.6879 0.934625 11.4794L0.938994 11.4776V2.57194L0.934334 2.5703C0.672927 2.47633 0.44953 2.3127 0.288318 2.09676C0.12361 1.87576 0.036377 1.61597 0.036377 1.3454C0.036377 0.622453 0.663607 0.0341797 1.43443 0.0341797C2.02365 0.0341797 2.55272 0.383702 2.75107 0.903819L2.75282 0.908326H12.2034L12.2051 0.903819C12.4035 0.383702 12.9325 0.0341797 13.5218 0.0341797C14.2926 0.0341797 14.9198 0.622453 14.9198 1.3454C14.9198 1.8804 14.5786 2.35695 14.0505 2.55951L14.046 2.56128V11.4455L14.0508 11.4471C14.6054 11.6331 14.9781 12.1294 14.9781 12.682C14.9781 13.4049 14.3508 13.9932 13.58 13.9932ZM2.77481 1.7191C2.63836 2.1503 2.26627 2.49176 1.80389 2.61032L1.7985 2.61168V11.4023L1.80418 11.4035C2.27093 11.5031 2.65802 11.829 2.81442 12.2541L2.81617 12.2587H12.2565L12.2583 12.2541C12.4052 11.855 12.7503 11.545 13.1817 11.425L13.1869 11.4235V2.61865L13.1814 2.61742C12.7046 2.50556 12.3215 2.16122 12.1815 1.7191L12.1799 1.71418H2.77627L2.77481 1.7191Z" fill="#F79740"/>
<path id="Vector_2" d="M13.5217 0.0410023C14.2886 0.0410023 14.9125 0.626134 14.9125 1.34539C14.9125 1.60955 14.8287 1.86387 14.6703 2.0809C14.5156 2.29289 14.3004 2.45624 14.0477 2.55308L14.0387 2.55649V11.4501L14.0483 11.4534C14.6 11.6385 14.9707 12.1321 14.9707 12.6818C14.9707 13.4011 14.3468 13.9862 13.58 13.9862C13.2768 13.9862 12.9887 13.8964 12.7467 13.7263C12.5126 13.5619 12.3366 13.3278 12.2508 13.0671L12.2476 13.0575H2.82486L2.82166 13.0671C2.73588 13.3278 2.55982 13.5619 2.32579 13.7263C2.0839 13.8964 1.79569 13.9862 1.49249 13.9862C0.725748 13.9864 0.101868 13.4012 0.101868 12.682C0.101868 12.1627 0.429973 11.6931 0.937786 11.4856L0.946524 11.4821V2.56715L0.937204 2.56373C0.677108 2.47031 0.454876 2.30736 0.294537 2.09265C0.130411 1.87302 0.0436158 1.6146 0.0436158 1.34539C0.0436158 0.626134 0.667496 0.0410023 1.43439 0.0410023C2.02055 0.0410023 2.54686 0.388612 2.74419 0.906134L2.74768 0.915149H12.2083L12.2118 0.906134C12.4092 0.388612 12.9355 0.0410023 13.5217 0.0410023ZM2.81088 12.2654H12.2616L12.2649 12.2562C12.411 11.8592 12.7544 11.5509 13.1836 11.4315L13.194 11.4287V2.61331L13.183 2.61072C12.7087 2.4994 12.3275 2.15698 12.1883 1.71704L12.1853 1.70721H2.77084L2.76778 1.71704C2.70093 1.92834 2.57627 2.12202 2.40734 2.27718C2.23827 2.43248 2.02885 2.5453 1.80181 2.60348L1.79103 2.60621V11.4075L1.80239 11.41C2.03234 11.459 2.24686 11.5636 2.42292 11.7124C2.59797 11.8603 2.73093 12.0482 2.80739 12.256L2.81088 12.2654ZM13.5217 0.0273438C12.9117 0.0273438 12.3925 0.392027 12.1982 0.90149H2.75787C2.5636 0.392027 2.04443 0.0273438 1.43439 0.0273438C0.658176 0.0273438 0.0290527 0.617393 0.0290527 1.34539C0.0290527 1.9073 0.404051 2.38699 0.931961 2.57657V11.4731C0.434925 11.6762 0.0873049 12.141 0.0873049 12.682C0.0873049 13.41 0.716428 14 1.49264 14C2.12424 14 2.65855 13.6091 2.83564 13.0712H12.237C12.414 13.6091 12.9484 14 13.58 14C14.3562 14 14.9853 13.41 14.9853 12.682C14.9853 12.1098 14.5965 11.6229 14.0533 11.4407V2.56578C14.5659 2.36924 14.927 1.89692 14.927 1.34539C14.927 0.617393 14.2979 0.0273438 13.5217 0.0273438ZM2.82137 12.2517C2.66453 11.8255 2.28094 11.4982 1.80574 11.3968V2.61687C2.27365 2.49694 2.64414 2.15603 2.78176 1.721H12.1745C12.315 2.1649 12.698 2.51101 13.1796 2.62397V11.4183C12.7452 11.5392 12.3986 11.8518 12.2514 12.2517H2.82137Z" fill="#F79740"/>
</g>
<defs>
<clipPath id="clip0_520_6376">
<rect width="15" height="14" fill="white"/>
</clipPath>
</defs>
</svg>
