<?xml version="1.0" standalone="no"?><!DOCTYPE svg PUBLIC "-//W3C//DTD SVG 1.1//EN" "http://www.w3.org/Graphics/SVG/1.1/DTD/svg11.dtd"><svg t="1697764512138" class="icon" viewBox="0 0 1024 1024" version="1.1" xmlns="http://www.w3.org/2000/svg" p-id="4431" xmlns:xlink="http://www.w3.org/1999/xlink" width="32" height="32"><path d="M918.741333 810.517333L938.666667 916.842667a42.666667 42.666667 0 0 1-42.666667 42.666666H128a42.666667 42.666667 0 0 1-42.666667-42.666666L111.872 810.666667H106.666667a42.666667 42.666667 0 0 1-42.666667-42.666667l85.333333-256c6.656-20.224 19.093333-42.666667 42.666667-42.666667h145.578667a821.546667 821.546667 0 0 0 41.450666 64h-160.874666a26.773333 26.773333 0 0 0-21.333334 21.333334l-59.882666 170.666666a21.333333 21.333333 0 0 0 21.333333 21.333334h707.456a21.333333 21.333333 0 0 0 21.333333-21.333334l-60.778666-170.666666a23.850667 23.850667 0 0 0-21.333334-21.333334h-159.466666a826.154667 826.154667 0 0 0 41.28-64H832a46.549333 46.549333 0 0 1 42.666667 42.666667l85.333333 256a42.666667 42.666667 0 0 1-41.258667 42.517333zM854.272 810.666667H174.784l-16.512 63.509333a21.333333 21.333333 0 0 0 21.333333 21.333333h664.789334a21.333333 21.333333 0 0 0 21.333333-21.333333z" fill="#5A8DF2" p-id="4432"></path><path d="M512 661.333333c-37.610667 0-234.666667-233.066667-234.666667-362.666666a234.666667 234.666667 0 0 1 469.333334 0c0 129.6-199.061333 362.666667-234.666667 362.666666z m0-533.333333a170.666667 170.666667 0 0 0-170.666667 170.666667c0 94.250667 148.416 277.333333 170.666667 277.333333 20.266667 0 170.666667-183.082667 170.666667-277.333333a170.666667 170.666667 0 0 0-170.666667-170.666667z m0 258.005333a74.666667 74.666667 0 1 1 74.666667-74.666666 74.666667 74.666667 0 0 1-74.666667 74.666666z" fill="#F2A355" p-id="4433"></path></svg>