<?xml version="1.0" standalone="no"?><!DOCTYPE svg PUBLIC "-//W3C//DTD SVG 1.1//EN" "http://www.w3.org/Graphics/SVG/1.1/DTD/svg11.dtd"><svg t="1710817269355" class="icon" viewBox="0 0 1024 1024" version="1.1" xmlns="http://www.w3.org/2000/svg" p-id="1274" xmlns:xlink="http://www.w3.org/1999/xlink" width="128" height="128"><path d="M918.30044445 280.68977778c-16.83911111 0-30.49244445 13.65333333-30.49244445 30.49244444v481.62133333H593.23733333c-30.94755555 0.11377778-60.52977778 13.19822222-81.23733333 36.18133334a110.09137778 110.09137778 0 0 0-81.23733333-36.18133334H136.192V311.18222222c-0.68266667-16.27022222-14.10844445-29.12711111-30.49244445-29.12711111-16.27022222 0-29.696 12.85688889-30.49244444 29.12711111V803.27111111c-0.34133333 28.44444445 22.30044445 51.88266667 50.74488889 52.33777778h304.81066667c21.73155555 0 40.27733333 14.10844445 47.44533333 33.792 4.32355555 11.264 15.24622222 18.65955555 27.42044445 18.54577778h12.62933333c12.17422222 0.11377778 23.09688889-7.28177778 27.42044444-18.54577778 7.168-20.13866667 26.16888889-33.56444445 47.44533333-33.792h304.6968889c28.44444445-0.45511111 51.2-23.77955555 50.85866666-52.33777778V311.18222222c0.11377778-16.83911111-13.53955555-30.49244445-30.37866666-30.49244444z" fill="#CEE8FF" p-id="1275"></path><path d="M918.30044445 280.68977778c-16.83911111 0-30.49244445 13.65333333-30.49244445 30.49244444v481.62133333H593.23733333c-30.94755555 0.11377778-60.52977778 13.19822222-81.23733333 36.18133334a110.09137778 110.09137778 0 0 0-81.23733333-36.18133334H136.192V311.18222222c-0.68266667-16.27022222-14.10844445-29.12711111-30.49244445-29.12711111-16.27022222 0-29.696 12.85688889-30.49244444 29.12711111V803.27111111c-0.34133333 28.44444445 22.30044445 51.88266667 50.74488889 52.33777778h304.81066667c21.73155555 0 40.27733333 14.10844445 47.44533333 33.792 4.32355555 11.15022222 15.13244445 18.54577778 27.07911111 18.54577778H518.59911111c11.94666667 0 22.75555555-7.39555555 27.07911111-18.54577778 7.168-20.13866667 26.16888889-33.56444445 47.44533333-33.792h304.6968889c28.44444445-0.45511111 51.2-23.77955555 50.85866666-52.33777778V311.18222222c0.11377778-16.83911111-13.53955555-30.49244445-30.37866666-30.49244444z" fill="#298DF7" p-id="1276"></path><path d="M832.85333333 157.80977778v-12.288h-2.38933333c-1.93422222-6.37155555-5.00622222-12.40177778-9.78488889-17.18044445-7.85066667-7.85066667-18.432-12.17422222-29.46844444-12.17422222h-197.97333334c-31.97155555 0-60.87111111 12.85688889-81.23733333 33.45066667-21.61777778-21.504-50.85866667-33.56444445-81.23733333-33.45066667h-197.97333334c-22.98311111 0-41.52888889 18.65955555-41.52888888 41.64266667v557.39733333h239.616c22.86933333 0 42.89422222 13.312 48.81066666 32.42666667l1.93422222 21.84533333h60.98488889l1.82044445-21.84533333c5.91644445-19.11466667 25.94133333-32.42666667 48.81066666-32.42666667h239.50222222v-48.35555556h0.11377778V398.22222222 157.80977778z" fill="#CEE8FF" p-id="1277"></path><path d="M431.104 164.75022222c17.52177778 0 34.01955555 6.82666667 46.53511111 19.22844445l34.47466667 34.36088888 34.24711111-34.47466666c12.288-12.288 28.89955555-19.11466667 46.87644444-19.11466667h191.14666667v453.632h-0.11377778V666.73777778h-191.14666667c-32.88177778 0-63.03288889 15.36-81.23733333 39.36711111-18.20444445-24.12088889-48.35555555-39.36711111-81.23733333-39.36711111H239.616V164.75022222H431.104m0-48.58311111H232.67555555c-22.98311111 0-41.52888889 18.65955555-41.52888888 41.64266667v557.39733333h239.616c22.86933333 0 42.89422222 13.312 48.81066666 32.42666667l1.93422222 21.84533333h60.9848889l1.82044444-21.84533333c5.91644445-19.11466667 25.94133333-32.42666667 48.81066666-32.42666667h239.50222223v-48.35555556h0.11377777V398.22222222 145.52177778h-2.38933333c-1.93422222-6.37155555-5.00622222-12.40177778-9.78488889-17.18044445-7.85066667-7.85066667-18.432-12.17422222-29.46844444-12.17422222h-197.97333334c-31.97155555 0-60.87111111 12.85688889-81.23733333 33.45066667-21.39022222-21.504-50.40355555-33.45066667-80.78222222-33.45066667z" fill="#298DF7" p-id="1278"></path><path d="M681.87022222 317.78133333H584.81777778c-13.312 0-24.23466667-10.92266667-24.23466667-24.23466666 0-13.312 10.92266667-24.23466667 24.23466667-24.23466667h97.05244444c13.312 0 24.23466667 10.92266667 24.23466667 24.23466667 0.11377778 13.312-10.80888889 24.23466667-24.23466667 24.23466666zM439.18222222 317.78133333h-97.05244444c-13.312 0-24.23466667-10.92266667-24.23466667-24.23466666 0-13.312 10.92266667-24.23466667 24.23466667-24.23466667H439.18222222c13.312 0 24.23466667 10.92266667 24.23466667 24.23466667 0 13.312-10.92266667 24.23466667-24.23466667 24.23466666zM681.87022222 463.41688889H584.81777778c-13.312 0-24.23466667-10.92266667-24.23466667-24.23466667 0-13.312 10.92266667-24.23466667 24.23466667-24.23466667h97.05244444c13.312 0 24.23466667 10.92266667 24.23466667 24.23466667 0.11377778 13.312-10.80888889 24.23466667-24.23466667 24.23466667zM439.18222222 463.41688889h-97.05244444c-13.312 0-24.23466667-10.92266667-24.23466667-24.23466667 0-13.312 10.92266667-24.23466667 24.23466667-24.23466667H439.18222222c13.312 0 24.23466667 10.92266667 24.23466667 24.23466667 0 13.312-10.92266667 24.23466667-24.23466667 24.23466667zM681.87022222 609.05244445H584.81777778c-13.312 0-24.23466667-10.92266667-24.23466667-24.23466667 0-13.312 10.92266667-24.23466667 24.23466667-24.23466667h97.05244444c13.312 0 24.23466667 10.92266667 24.23466667 24.23466667 0.11377778 13.312-10.80888889 24.23466667-24.23466667 24.23466667zM439.18222222 609.05244445h-97.05244444c-13.312 0-24.23466667-10.92266667-24.23466667-24.23466667 0-13.312 10.92266667-24.23466667 24.23466667-24.23466667H439.18222222c13.312 0 24.23466667 10.92266667 24.23466667 24.23466667 0 13.312-10.92266667 24.23466667-24.23466667 24.23466667z" fill="#298DF7" p-id="1279"></path></svg>