<?xml version="1.0" standalone="no"?><!DOCTYPE svg PUBLIC "-//W3C//DTD SVG 1.1//EN" "http://www.w3.org/Graphics/SVG/1.1/DTD/svg11.dtd"><svg t="1710729492574" class="icon" viewBox="0 0 1024 1024" version="1.1" xmlns="http://www.w3.org/2000/svg" p-id="1210" xmlns:xlink="http://www.w3.org/1999/xlink" width="128" height="128"><path d="M341.333333 448H213.333333A106.666667 106.666667 0 0 1 106.666667 341.333333V213.333333A106.666667 106.666667 0 0 1 213.333333 106.666667h128A106.666667 106.666667 0 0 1 448 213.333333v128A106.666667 106.666667 0 0 1 341.333333 448z m-128-298.666667c-35.413333 0-64 28.586667-64 64v128c0 35.413333 28.586667 64 64 64h128c35.413333 0 64-28.586667 64-64V213.333333c0-35.413333-28.586667-64-64-64H213.333333zM810.666667 448h-128A106.666667 106.666667 0 0 1 576 341.333333V213.333333A106.666667 106.666667 0 0 1 682.666667 106.666667h128A106.666667 106.666667 0 0 1 917.333333 213.333333v128a106.666667 106.666667 0 0 1-106.666666 106.666667z m-128-298.666667c-35.413333 0-64 28.586667-64 64v128c0 35.413333 28.586667 64 64 64h128c35.413333 0 64-28.586667 64-64V213.333333c0-35.413333-28.586667-64-64-64h-128zM341.333333 917.333333H213.333333A106.666667 106.666667 0 0 1 106.666667 810.666667v-128A106.666667 106.666667 0 0 1 213.333333 576h128a106.666667 106.666667 0 0 1 106.666667 106.666667v128A106.666667 106.666667 0 0 1 341.333333 917.333333z m-128-298.666666c-35.413333 0-64 28.586667-64 64v128c0 35.413333 28.586667 64 64 64h128c35.413333 0 64-28.586667 64-64v-128c0-35.413333-28.586667-64-64-64H213.333333zM810.666667 917.333333h-128a106.666667 106.666667 0 0 1-106.666667-106.666666v-128a106.666667 106.666667 0 0 1 106.666667-106.666667h128a106.666667 106.666667 0 0 1 106.666666 106.666667v128a106.666667 106.666667 0 0 1-106.666666 106.666666z m-128-298.666666c-35.413333 0-64 28.586667-64 64v128c0 35.413333 28.586667 64 64 64h128c35.413333 0 64-28.586667 64-64v-128c0-35.413333-28.586667-64-64-64h-128z" fill="#1296db" p-id="1211"></path></svg>