<?xml version="1.0" standalone="no"?><!DOCTYPE svg PUBLIC "-//W3C//DTD SVG 1.1//EN" "http://www.w3.org/Graphics/SVG/1.1/DTD/svg11.dtd"><svg t="1710309255891" class="icon" viewBox="0 0 1024 1024" version="1.1" xmlns="http://www.w3.org/2000/svg" p-id="6874" xmlns:xlink="http://www.w3.org/1999/xlink" width="64" height="64"><path d="M844.44 378.58v396.35c0 67.36-55.22 122.59-122.59 122.59H300.53c-67.36 0-122.59-55.22-122.59-122.59V378.58l333.25-219.44 333.25 219.44z" fill="#F7B52C" p-id="6875"></path><path d="M511.19 729.48c-71.63 0-129.91-58.28-129.91-129.91s58.28-129.91 129.91-129.91S641.1 527.94 641.1 599.57s-58.28 129.91-129.91 129.91z m0-188.4c-32.25 0-58.5 26.24-58.5 58.5s26.24 58.5 58.5 58.5c32.26 0 58.5-26.24 58.5-58.5s-26.24-58.5-58.5-58.5z" fill="#FFFFFF" p-id="6876"></path><path d="M927.07 360.36L530.52 105.12c-0.75-0.48-1.55-0.76-2.32-1.18-1.16-0.63-2.3-1.29-3.52-1.79-1.08-0.44-2.17-0.72-3.27-1.04-1.11-0.33-2.21-0.7-3.35-0.93-1.11-0.22-2.21-0.29-3.33-0.4-1.2-0.12-2.38-0.27-3.59-0.27-1.01 0-1.99 0.14-3 0.22-1.31 0.11-2.61 0.2-3.91 0.46-0.95 0.19-1.86 0.51-2.79 0.77-1.28 0.36-2.55 0.7-3.8 1.21-1.07 0.44-2.06 1.03-3.08 1.57-0.89 0.47-1.81 0.81-2.67 1.36L95.31 360.36c-16.6 10.69-21.39 32.78-10.72 49.35 6.83 10.6 18.32 16.39 30.06 16.39 6.63 0 13.32-1.84 19.29-5.67l377.25-242.8 377.23 242.8a35.558 35.558 0 0 0 19.29 5.67c11.72 0 23.22-5.79 30.06-16.39 10.68-16.58 5.9-38.66-10.7-49.35z" fill="#F7B52C" p-id="6877"></path></svg>