<?xml version="1.0" standalone="no"?><!DOCTYPE svg PUBLIC "-//W3C//DTD SVG 1.1//EN" "http://www.w3.org/Graphics/SVG/1.1/DTD/svg11.dtd"><svg t="1711070909373" class="icon" viewBox="0 0 1024 1024" version="1.1" xmlns="http://www.w3.org/2000/svg" p-id="1506" xmlns:xlink="http://www.w3.org/1999/xlink" width="128" height="128"><path d="M200.2837325 991.99519906a117.56084156 117.56084156 0 0 1-118.61994844-117.20780718V221.54451031a118.73292 118.73292 0 0 1 118.61994844-118.61994844h119.07183469V85.37163406a51.81149906 51.81149906 0 0 1 3.85514812-18.69676406l1.59572063-3.332655a57.98256094 57.98256094 0 0 1 8.3598825-12.79400906l2.6548275-3.03610594a54.59341969 54.59341969 0 0 1 16.08430031-11.2971375 52.9835775 52.9835775 0 0 1 20.77261219-4.2364275h286.80609a50.00395688 50.00395688 0 0 1 35.93902031 14.50270125l3.69981281 4.123455a53.463705 53.463705 0 0 1 7.41374625 11.05707375l1.86402844 3.67157062a53.661405 53.661405 0 0 1 4.39176188 19.96769063v17.55292875h112.77367968a117.03834938 117.03834938 0 0 1 116.61470719 118.61994844V874.78739187a115.86627094 115.86627094 0 0 1-116.61470719 117.20780719H200.26961188z m19.33222781-804.03143156c-42.74554594 0-53.80261969 11.05707375-53.80261968 53.78849906v612.34724157c0 42.7596675 11.05707375 53.83086281 53.80261968 53.83086281h584.44331157c42.73142437 0 53.78849812-11.07119531 53.78849812-53.83086281V241.75226656c0-42.73142437-11.05707375-53.78849812-53.78849812-53.78849906h-91.26675375v11.96084531c0 29.38668-23.92168969 30.36105844-53.30836969 30.36105844h-286.80609c-29.40080156 0-53.32249125-0.97437844-53.32249125-30.36105844v-11.96084531H219.61596031z m142.10387438 577.77800063a41.29103906 41.29103906 0 0 1-42.3642675-40.95212532 42.49136062 42.49136062 0 0 1 42.3642675-42.44899593h123.60481031a42.47723906 42.47723906 0 0 1 42.3642675 42.44899593 41.2769175 41.2769175 0 0 1-42.3642675 40.95212532h-123.60481031z m240.19127437-0.29655a41.29103906 41.29103906 0 0 1-42.3642675-40.95212532 42.49136062 42.49136062 0 0 1 42.3642675-42.44899593h68.64423469a42.49136062 42.49136062 0 0 1 42.3642675 42.44899593 41.29103906 41.29103906 0 0 1-42.3642675 40.95212532h-68.64423469z m-240.47370281-168.04492688a42.43487437 42.43487437 0 0 1 0-84.85562812h313.02957187a42.43487437 42.43487437 0 1 1 1e-8 84.85562812H361.43740625z m0.28242844-169.45707a42.43487437 42.43487437 0 1 1 0-84.85562719h313.00132875a42.43487437 42.43487437 0 0 1 0 84.85562719H361.71983469z" fill="#EE7ABB" p-id="1507"></path></svg>