<?xml version="1.0" standalone="no"?><!DOCTYPE svg PUBLIC "-//W3C//DTD SVG 1.1//EN" "http://www.w3.org/Graphics/SVG/1.1/DTD/svg11.dtd"><svg t="1710307589272" class="icon" viewBox="0 0 1024 1024" version="1.1" xmlns="http://www.w3.org/2000/svg" p-id="8102" xmlns:xlink="http://www.w3.org/1999/xlink" width="64" height="64"><path d="M512 78.77C272.542 78.77 78.77 272.541 78.77 512S272.541 945.23 512 945.23 945.23 751.459 945.23 512 751.459 78.77 512 78.77z m-47.262 165.415c0-25.994 21.268-47.262 47.262-47.262s47.262 21.268 47.262 47.262v279.63c0 25.994-21.268 47.262-47.262 47.262s-47.262-21.268-47.262-47.262v-279.63zM512 807.385c-163.052 0-295.385-132.333-295.385-295.385 0-103.582 53.17-194.56 133.908-247.335l51.594 72.467C344.222 373.76 305.23 438.351 305.23 512c0 113.822 92.947 206.77 206.769 206.77S718.77 625.821 718.77 512c0-73.255-38.598-137.846-96.1-174.474l51.595-72.468c79.95 52.776 133.12 143.754 133.12 246.942 0 163.052-132.333 295.385-295.385 295.385z" fill="#FE3D54" p-id="8103"></path></svg>