<?xml version="1.0" standalone="no"?><!DOCTYPE svg PUBLIC "-//W3C//DTD SVG 1.1//EN" "http://www.w3.org/Graphics/SVG/1.1/DTD/svg11.dtd"><svg height="199" node-id="1" sillyvg="true" template-height="199" template-width="370" version="1.1" viewBox="0 0 370 199" width="370" xmlns="http://www.w3.org/2000/svg" xmlns:xlink="http://www.w3.org/1999/xlink"><defs node-id="98"><linearGradient gradientUnits="objectBoundingBox" id="linearGradient-1" node-id="7" spreadMethod="pad" x1="-0.47019014" x2="0.68868846" y1="-1.8596389" y2="1"><stop offset="0" stop-color="#d2d2d2"></stop><stop offset="1" stop-color="#d2d2d2" stop-opacity="0"></stop></linearGradient><linearGradient gradientUnits="objectBoundingBox" id="linearGradient-2" node-id="10" spreadMethod="pad" x1="1.1899998" x2="0.5450187" y1="-1.1086411" y2="0.5558718"><stop offset="0" stop-color="#d2d2d2"></stop><stop offset="1" stop-color="#d2d2d2" stop-opacity="0"></stop></linearGradient><linearGradient gradientUnits="objectBoundingBox" id="linearGradient-3" node-id="13" spreadMethod="pad" x1="0.5" x2="0.5" y1="-2.211569" y2="1"><stop offset="0" stop-color="#d2d2d2"></stop><stop offset="1" stop-color="#d2d2d2" stop-opacity="0"></stop></linearGradient><linearGradient gradientUnits="objectBoundingBox" id="linearGradient-4" node-id="16" spreadMethod="pad" x1="1.0008096" x2="0.38826305" y1="-0.9778046" y2="1.0473608"><stop offset="0" stop-color="#d2d2d2"></stop><stop offset="1" stop-color="#d2d2d2" stop-opacity="0"></stop></linearGradient><linearGradient gradientUnits="objectBoundingBox" id="linearGradient-5" node-id="19" spreadMethod="pad" x1="0.5" x2="0.5" y1="-2.301163" y2="1"><stop offset="0" stop-color="#d2d2d2"></stop><stop offset="1" stop-color="#d2d2d2" stop-opacity="0"></stop></linearGradient><linearGradient gradientUnits="objectBoundingBox" id="linearGradient-6" node-id="22" spreadMethod="pad" x1="0.5" x2="0.5" y1="-1.6920329" y2="1"><stop offset="0" stop-color="#d2d2d2"></stop><stop offset="1" stop-color="#d2d2d2" stop-opacity="0"></stop></linearGradient><linearGradient gradientUnits="objectBoundingBox" id="linearGradient-7" node-id="25" spreadMethod="pad" x1="0.675653" x2="0.73036045" y1="0.48148328" y2="0.5374243"><stop offset="0" stop-color="#858585" stop-opacity="0"></stop><stop offset="1" stop-color="#616161" stop-opacity="0.5"></stop></linearGradient><linearGradient gradientUnits="objectBoundingBox" id="linearGradient-8" node-id="28" spreadMethod="pad" x1="-0.09083483" x2="0.6330665" y1="0.4700021" y2="0.5427827"><stop offset="0" stop-color="#f2f2f2"></stop><stop offset="1" stop-color="#e9e9e9"></stop></linearGradient><linearGradient gradientUnits="objectBoundingBox" id="linearGradient-9" node-id="31" spreadMethod="pad" x1="0.017227236" x2="0.92575884" y1="0.41746977" y2="0.5368054"><stop offset="0" stop-color="#cac9c6"></stop><stop offset="1" stop-color="#dedede"></stop></linearGradient><linearGradient gradientUnits="objectBoundingBox" id="linearGradient-10" node-id="34" spreadMethod="pad" x1="0.8710877" x2="0.23140366" y1="1.1342334" y2="0"><stop offset="0" stop-color="#c5c5c5"></stop><stop offset="1" stop-color="#ffffff"></stop></linearGradient><linearGradient gradientUnits="objectBoundingBox" id="linearGradient-11" node-id="37" spreadMethod="pad" x1="0.041907288" x2="0.591408" y1="0.69550294" y2="0.19856986"><stop offset="0" stop-color="#e3e3e3"></stop><stop offset="1" stop-color="#d3d3d3"></stop></linearGradient><linearGradient gradientUnits="objectBoundingBox" id="linearGradient-12" node-id="40" spreadMethod="pad" x1="0.37685984" x2="0.9893951" y1="0.24919812" y2="1.4965458"><stop offset="0" stop-color="#e5e5e5"></stop><stop offset="1" stop-color="#e8e8e8"></stop></linearGradient><linearGradient gradientUnits="objectBoundingBox" id="linearGradient-13" node-id="43" spreadMethod="pad" x1="0.77330405" x2="0.5910516" y1="0.6214287" y2="0.058909986"><stop offset="0" stop-color="#dddddd"></stop><stop offset="1" stop-color="#d3d3d3"></stop></linearGradient><linearGradient gradientUnits="objectBoundingBox" id="linearGradient-14" node-id="46" spreadMethod="pad" x1="0.7120045" x2="-0.08138395" y1="0.6446005" y2="0.035253815"><stop offset="0" stop-color="#eeeeee"></stop><stop offset="1" stop-color="#dadbda"></stop></linearGradient><linearGradient gradientUnits="objectBoundingBox" id="linearGradient-15" node-id="49" spreadMethod="pad" x1="0.22325717" x2="1.224567" y1="0.35446241" y2="0.8862298"><stop offset="0" stop-color="#fafafa"></stop><stop offset="1" stop-color="#ebebeb"></stop></linearGradient><linearGradient gradientUnits="objectBoundingBox" id="linearGradient-16" node-id="52" spreadMethod="pad" x1="0.8393069" x2="0.24081276" y1="0" y2="0.96234524"><stop offset="0" stop-color="#dddddd"></stop><stop offset="1" stop-color="#dcdcdc"></stop></linearGradient><linearGradient gradientUnits="objectBoundingBox" id="linearGradient-17" node-id="55" spreadMethod="pad" x1="-0.15300049" x2="1" y1="0.5" y2="0.43584585"><stop offset="0" stop-color="#ffffff"></stop><stop offset="1" stop-color="#478ffc"></stop></linearGradient><linearGradient gradientUnits="objectBoundingBox" id="linearGradient-18" node-id="58" spreadMethod="pad" x1="-0.61734724" x2="1" y1="1.0053598" y2="0.12706612"><stop offset="0" stop-color="#ffffff"></stop><stop offset="1" stop-color="#478ffc"></stop></linearGradient><linearGradient gradientUnits="objectBoundingBox" id="linearGradient-19" node-id="61" spreadMethod="pad" x1="1.8916404" x2="0.076593205" y1="0.5389989" y2="0.6398111"><stop offset="0" stop-color="#5598fc"></stop><stop offset="1" stop-color="#478ffc"></stop></linearGradient><linearGradient gradientUnits="objectBoundingBox" id="linearGradient-20" node-id="64" spreadMethod="pad" x1="0" x2="1" y1="0.98213226" y2="0.07450015"><stop offset="0" stop-color="#ffffff"></stop><stop offset="1" stop-color="#478ffc"></stop></linearGradient></defs><g node-id="219"><g node-id="220"><g node-id="221"><path d="M 73.26 159.55 L 70.32 157.97 L 67.38 155.84 L 64.69 153.33 L 62.35 150.49 L 60.48 147.37 L 59.26 144.11 L 58.84 141.86 L 58.82 139.61 L 59.20 137.33 L 60.12 137.25 L 60.99 137.44 L 61.76 137.88 L 62.38 138.57 L 63.38 140.06 L 65.80 143.40 L 68.77 146.82 L 70.29 148.10 L 71.41 148.61 L 72.03 148.57 L 72.51 148.11 L 72.87 147.01 L 72.91 144.79 L 72.26 140.28 L 70.16 131.08 L 68.12 121.88 L 67.42 117.22 L 67.07 112.47 L 67.23 108.99 L 67.74 106.07 L 68.57 103.62 L 69.78 101.35 L 71.15 99.62 L 72.67 98.35 L 74.42 97.47 L 76.19 97.10 L 78.04 97.20 L 79.80 97.78 L 81.55 98.92 L 83.34 100.72 L 84.76 102.84 L 86.07 105.70 L 87.23 109.47 L 87.81 112.84 L 88.86 118.59 L 89.59 121.76 L 90.45 124.74 L 91.51 127.46 L 92.62 129.31 L 93.54 130.18 L 94.45 130.49 L 95.44 130.32 L 96.36 129.64 L 97.02 128.71 L 98.23 126.39 L 99.30 123.89 L 100.40 121.42 L 101.65 119.26 L 102.68 118.01 L 103.92 117.06 L 105.42 116.37 L 106.87 116.10 L 108.26 116.16 L 109.64 116.53 L 111.58 117.52 L 113.40 118.98 L 114.99 120.73 L 116.30 122.62 L 117.68 125.18 L 119.17 128.53 L 120.47 132.13 L 121.58 136.07 L 122.36 140.10 L 122.70 144.04 L 122.64 146.66 L 122.29 149.06 L 121.67 151.28 L 120.71 153.34 L 119.39 155.10 L 117.67 156.60 L 115.64 157.80 L 113.22 158.91 L 110.36 159.90 L 105.88 161.04 L 100.90 161.86 L 95.79 162.34 L 90.66 162.48 L 85.61 162.27 L 81.02 161.74 L 76.71 160.82 L 73.35 159.64 L 73.26 159.55 Z" fill="url(#linearGradient-1)" fill-rule="nonzero" group-id="1,2,3" id="路径" node-id="71" stroke="none" target-height="65.38158" target-width="63.88073" target-x="58.81823" target-y="97.09566"></path><path d="M 273.19 180.43 L 272.07 177.29 L 271.31 173.74 L 271.00 170.07 L 271.17 166.39 L 271.58 163.97 L 272.25 161.71 L 273.16 159.58 L 274.37 157.63 L 275.87 155.95 L 277.69 154.50 L 278.43 155.07 L 278.94 155.81 L 279.20 156.67 L 279.19 157.60 L 278.92 159.38 L 278.48 163.48 L 278.38 168.01 L 278.65 169.98 L 279.14 171.11 L 279.63 171.50 L 280.29 171.48 L 281.30 170.90 L 282.81 169.28 L 285.36 165.50 L 290.02 157.26 L 294.69 149.07 L 297.27 145.15 L 300.17 141.39 L 302.61 138.90 L 304.95 137.08 L 307.21 135.81 L 309.63 134.93 L 311.80 134.56 L 313.78 134.64 L 315.67 135.16 L 317.24 136.07 L 318.54 137.39 L 319.46 139.01 L 320.00 141.03 L 320.12 143.57 L 319.76 146.10 L 318.81 149.10 L 317.15 152.68 L 315.32 155.57 L 312.25 160.54 L 310.66 163.38 L 309.29 166.16 L 308.25 168.90 L 307.84 171.01 L 307.93 172.28 L 308.40 173.12 L 309.25 173.67 L 310.38 173.77 L 311.49 173.53 L 313.94 172.62 L 316.42 171.48 L 318.90 170.39 L 321.29 169.62 L 322.89 169.38 L 324.46 169.49 L 326.04 169.97 L 327.29 170.75 L 328.28 171.72 L 329.06 172.92 L 329.83 174.96 L 330.20 177.26 L 330.21 179.62 L 329.91 181.90 L 328.94 185.25 L 327.34 188.63 L 325.21 191.77 L 322.55 194.58 L 320.53 196.19 L 318.33 197.51 L 315.93 198.55 L 313.41 199.23 L 310.73 199.50 L 307.84 199.36 L 303.26 198.54 L 298.08 197.20 L 292.90 195.44 L 287.81 193.24 L 284.52 191.51 L 281.56 189.64 L 278.89 187.63 L 276.48 185.35 L 274.61 182.98 L 273.22 180.52 L 273.19 180.43 Z" fill="url(#linearGradient-2)" fill-rule="nonzero" group-id="1,2,3" id="路径" node-id="72" stroke="none" target-height="64.94034" target-width="59.21286" target-x="270.99768" target-y="134.56235"></path><path d="M 370.52 199.36 L 361.69 193.58 L 352.37 188.06 L 342.54 182.79 L 332.18 177.78 L 321.73 173.23 L 310.86 168.98 L 299.54 165.06 L 287.77 161.45 L 275.97 158.30 L 263.82 155.53 L 251.31 153.13 L 238.42 151.12 L 225.55 149.56 L 212.41 148.43 L 198.99 147.75 L 185.26 147.50 L 171.53 147.75 L 158.11 148.43 L 144.96 149.56 L 132.10 151.12 L 119.21 153.13 L 106.70 155.53 L 94.55 158.30 L 82.75 161.45 L 70.98 165.06 L 59.66 168.98 L 48.79 173.23 L 38.33 177.78 L 27.98 182.79 L 18.15 188.06 L 8.83 193.58 L 0.00 199.36 L 370.52 199.36 Z" fill="url(#linearGradient-3)" fill-rule="nonzero" group-id="1,2,3" id="路径" node-id="73" stroke="none" target-height="51.851852" target-width="370.51852" target-x="0" target-y="147.5047"></path><path d="M 293.47 103.06 L 292.10 105.02 L 290.97 107.20 L 290.16 109.52 L 289.75 111.90 L 289.80 114.31 L 290.40 116.70 L 291.20 118.11 L 292.20 119.15 L 293.27 120.11 L 294.22 121.17 L 294.84 122.45 L 295.04 124.46 L 294.61 126.67 L 293.86 128.76 L 292.79 130.75 L 290.55 134.31 L 288.01 137.63 L 285.19 140.74 L 286.81 142.39 L 287.92 144.36 L 288.49 146.55 L 288.48 148.86 L 287.94 151.12 L 287.05 153.25 L 285.84 155.21 L 284.32 156.97 L 283.20 158.02 L 281.85 158.75 L 280.43 158.91 L 279.01 158.75 L 274.46 157.76 L 270.05 156.35 L 265.77 154.52 L 263.82 153.49 L 262.03 152.23 L 260.56 150.70 L 259.59 148.85 L 259.29 147.33 L 259.37 146.26 L 259.73 145.51 L 260.68 144.55 L 261.96 143.77 L 262.42 143.51 L 263.73 142.68 L 264.77 141.57 L 265.52 139.87 L 265.98 137.99 L 266.56 134.23 L 266.93 130.07 L 267.20 127.79 L 267.76 125.74 L 268.40 124.56 L 269.33 123.65 L 270.60 123.00 L 273.22 122.53 L 275.83 122.05 L 277.51 121.26 L 278.88 120.20 L 279.99 118.86 L 281.34 116.53 L 282.50 113.93 L 282.76 113.29 L 284.11 110.36 L 284.89 109.00 L 285.79 107.79 L 286.89 106.81 L 288.33 105.94 L 291.34 104.48 L 292.67 103.74 L 293.47 103.06 Z M 282.80 123.79 L 281.42 125.52 L 278.15 130.16 L 276.26 133.25 L 274.28 136.93 L 272.53 140.84 L 271.11 145.02 L 270.42 147.89 L 270.03 150.76 L 269.94 153.63 L 274.23 153.63 L 274.59 150.73 L 275.89 143.42 L 276.98 138.85 L 278.51 133.75 L 280.42 128.68 L 282.80 123.79 Z" fill="url(#linearGradient-4)" fill-rule="nonzero" group-id="1,2,3" id="形状结合" node-id="74" stroke="none" target-height="55.853195" target-width="35.745422" target-x="259.29163" target-y="103.06026"></path><path d="M 104.14 22.01 L 104.14 22.01 L 103.89 19.67 L 103.12 17.54 L 101.90 15.66 L 100.27 14.10 L 98.32 12.96 L 96.07 12.28 L 93.72 12.15 L 91.50 12.57 L 89.44 13.48 L 87.65 14.84 L 86.21 16.58 L 85.19 18.70 L 83.00 18.96 L 81.02 19.76 L 79.31 21.05 L 77.97 22.79 L 77.15 24.83 L 76.90 26.95 L 77.22 29.07 L 78.11 31.08 L 79.50 32.78 L 81.25 34.01 L 83.26 34.75 L 85.44 34.94 L 103.33 34.94 L 105.00 34.69 L 106.45 34.10 L 107.73 33.15 L 108.74 31.92 L 109.40 30.50 L 109.73 28.85 L 109.61 27.16 L 109.12 25.67 L 108.27 24.33 L 107.13 23.23 L 105.76 22.46 L 104.14 22.01 L 104.14 22.01 Z" fill="url(#linearGradient-5)" fill-rule="nonzero" group-id="1,2,3" id="路径" node-id="75" stroke="none" target-height="22.784378" target-width="32.824524" target-x="76.90355" target-y="12.152421"></path><path d="M 178.07 12.21 L 178.07 12.15 L 177.91 10.19 L 177.47 8.36 L 176.75 6.64 L 175.21 4.32 L 173.18 2.41 L 171.61 1.41 L 169.88 0.67 L 167.97 0.18 L 166.02 0.00 L 164.14 0.13 L 162.32 0.54 L 159.77 1.67 L 157.55 3.34 L 156.29 4.72 L 155.27 6.29 L 154.46 8.08 L 152.61 8.29 L 150.91 8.78 L 149.35 9.55 L 147.94 10.58 L 146.75 11.81 L 145.77 13.25 L 145.04 14.84 L 144.61 16.54 L 144.46 18.40 L 144.66 20.25 L 145.15 21.94 L 145.93 23.50 L 146.96 24.91 L 148.19 26.10 L 149.63 27.09 L 151.22 27.81 L 152.92 28.25 L 154.78 28.39 L 177.00 28.39 L 179.08 28.13 L 180.94 27.38 L 182.55 26.20 L 183.83 24.67 L 184.70 22.86 L 185.10 20.80 L 184.96 18.71 L 184.32 16.80 L 183.25 15.13 L 181.80 13.76 L 180.05 12.78 L 178.01 12.26 L 178.07 12.21 Z" fill="url(#linearGradient-6)" fill-rule="nonzero" group-id="1,2,3" id="路径" node-id="76" stroke="none" target-height="28.390203" target-width="40.63434" target-x="144.46297" target-y="0.0033842213"></path></g><path d="M 61.00 141.00 L 113.84 141.00 L 167.00 170.00 L 114.78 168.67 Z" fill="url(#linearGradient-7)" fill-rule="nonzero" group-id="1,2" id="矩形" node-id="77" stroke="none" target-height="29" target-width="106" target-x="61" target-y="141"></path><path d="M 174.10 75.44 L 173.58 108.48 L 249.15 85.60 Z" fill="url(#linearGradient-8)" fill-rule="nonzero" group-id="1,2" id="路径" node-id="78" stroke="none" target-height="33.03704" target-width="75.5679" target-x="173.58025" target-y="75.44444"></path><path d="M 113.90 88.74 L 174.10 75.58 L 174.10 95.64 Z" fill="url(#linearGradient-9)" fill-rule="nonzero" group-id="1,2" id="路径" node-id="79" stroke="none" target-height="20.06173" target-width="60.197533" target-x="113.90124" target-y="75.580246"></path><path d="M 113.90 88.74 L 184.95 95.78 L 184.95 185.68 L 113.90 168.48 Z" fill="url(#linearGradient-10)" fill-rule="nonzero" group-id="1,2" id="路径" node-id="80" stroke="none" target-height="96.93828" target-width="71.049385" target-x="113.90124" target-y="88.74074"></path><path d="M 113.90 88.74 L 185.00 95.50 L 177.26 138.90 L 113.90 125.70 Z" fill="url(#linearGradient-11)" fill-rule="nonzero" group-id="1,2" id="矩形" node-id="81" stroke="none" target-height="50.162903" target-width="71.09876" target-x="113.90124" target-y="88.74074"></path><path d="M 184.95 95.78 L 249.15 85.60 L 249.15 166.14 L 184.95 185.68 Z" fill="url(#linearGradient-12)" fill-opacity="0.99" fill-rule="nonzero" group-id="1,2,4" id="路径" node-id="82" stroke="none" target-height="100.07408" target-width="64.197525" target-x="184.95062" target-y="85.604935"></path><path d="M 185.00 96.00 L 243.12 86.71 L 249.15 124.73 L 193.59 138.90 Z" fill="url(#linearGradient-13)" fill-rule="nonzero" group-id="1,2" id="矩形" node-id="83" stroke="none" target-height="52.195313" target-width="64.14815" target-x="185" target-y="86.70833"></path><path d="M 113.90 88.74 L 96.81 117.67 L 168.54 131.35 L 184.95 95.78 Z" fill="url(#linearGradient-14)" fill-rule="nonzero" group-id="1,2" id="路径" node-id="84" stroke="none" target-height="42.604935" target-width="88.13581" target-x="96.81481" target-y="88.74074"></path><path d="M 184.95 95.78 L 205.12 131.35 L 269.78 115.12 L 249.15 85.60 Z" fill="url(#linearGradient-15)" fill-opacity="0.99" fill-rule="nonzero" group-id="1,2,5" id="路径" node-id="85" stroke="none" target-height="45.740738" target-width="84.82715" target-x="184.95062" target-y="85.604935"></path><path d="M 176.19 93.07 L 177.42 93.20" fill="none" group-id="1,2" id="路径" node-id="86" stroke="#dddddd" stroke-linecap="butt" stroke-width="1" target-height="0.12345886" target-width="1.2345734" target-x="176.18518" target-y="93.07407"></path><path d="M 220.69 63.44 L 221.15 62.30" fill="none" group-id="1,2" id="路径" node-id="87" stroke="#dddddd" stroke-linecap="butt" stroke-width="1" target-height="1.1481476" target-width="0.4567871" target-x="220.69136" target-y="62.296295"></path><path d="M 211.00 52.00 L 202.23 58.06 L 195.38 63.42 L 191.22 67.21 L 188.21 70.50 L 186.13 73.36 L 184.92 75.74 L 184.38 77.78 L 184.39 79.57 L 184.90 81.20 L 186.19 83.31 L 187.46 84.78 L 188.72 85.74 L 190.16 86.41 L 191.51 86.72 L 192.83 86.71 L 194.71 86.22 L 196.30 85.30 L 197.54 84.03 L 198.24 82.68 L 198.47 81.17 L 198.31 79.42 L 197.75 77.73 L 196.81 76.22 L 195.50 75.09 L 193.82 74.48 L 192.61 74.44 L 191.16 74.77 L 189.41 75.58 L 186.03 77.80 L 182.65 80.51 L 179.55 83.55 L 176.91 86.81 L 175.42 89.15 L 174.32 91.46 L 173.58 93.75" fill="none" group-id="1,2" id="路径-19" node-id="88" stroke="url(#linearGradient-16)" stroke-dasharray="4 3" stroke-linecap="butt" stroke-width="2" target-height="41.75309" target-width="37.419754" target-x="173.58025" target-y="52"></path><path d="M 259.85 15.00 L 200.85 26.18 L 215.85 36.13 Z" fill="url(#linearGradient-17)" fill-rule="nonzero" group-id="1,2,6" id="路径-16备份" node-id="90" stroke="none" target-height="21.133888" target-width="59" target-x="200.85211" target-y="15"></path><path d="M 259.85 15.00 L 215.85 36.13 L 215.85 53.00 Z" fill="url(#linearGradient-18)" fill-rule="nonzero" group-id="1,2,6" id="路径-16备份-2" node-id="91" stroke="none" target-height="38" target-width="44" target-x="215.85211" target-y="15"></path><path d="M 259.85 15.00 L 215.85 36.13 L 224.55 45.49 Z" fill="url(#linearGradient-19)" fill-rule="nonzero" group-id="1,2,6" id="路径-16备份-2" node-id="92" stroke="none" target-height="30.494553" target-width="44" target-x="215.85211" target-y="15"></path><path d="M 259.85 15.00 L 222.17 40.38 L 240.27 52.00 Z" fill="url(#linearGradient-20)" fill-rule="nonzero" group-id="1,2,6" id="路径-16备份" node-id="93" stroke="none" target-height="37" target-width="37.679367" target-x="222.17274" target-y="15"></path><path d="M 215.85 36.13 L 201.03 26.64" fill="none" group-id="1,2,6" id="路径-16" node-id="94" stroke="#9ac2fd" stroke-linecap="round" stroke-width="1" target-height="9.498835" target-width="14.818497" target-x="201.03362" target-y="26.635054"></path><path d="M 222.46 40.75 L 239.80 51.86" fill="none" group-id="1,2,6" id="路径-17" node-id="95" stroke="#9ac2fd" stroke-linecap="round" stroke-width="1" target-height="11.11343" target-width="17.341904" target-x="222.46127" target-y="40.745106"></path><path d="M 215.85 36.13 L 215.85 52.50" fill="none" group-id="1,2,6" id="路径-18" node-id="96" stroke="#9ac2fd" stroke-linecap="round" stroke-width="1" target-height="16.361607" target-width="0" target-x="215.85211" target-y="36.13389"></path></g></g></svg>