<?xml version="1.0" standalone="no"?><!DOCTYPE svg PUBLIC "-//W3C//DTD SVG 1.1//EN" "http://www.w3.org/Graphics/SVG/1.1/DTD/svg11.dtd"><svg t="1715737034245" class="icon" viewBox="0 0 1024 1024" version="1.1" xmlns="http://www.w3.org/2000/svg" p-id="6101" xmlns:xlink="http://www.w3.org/1999/xlink" width="200" height="200"><path d="M512 340.48C439.296 340.48 380.416 399.36 380.416 471.04s58.88 130.56 131.584 130.56S643.584 542.72 643.584 471.04 583.68 340.48 512 340.48z m0 208.384c-43.008 0-78.336-34.304-78.336-77.312S468.992 394.24 512 394.24s78.336 34.304 78.336 77.312-35.328 77.312-78.336 77.312z" fill="#2a82e4" p-id="6102"></path><path d="M512.512 118.784c-194.56 0-353.28 159.232-353.28 356.352 0 94.208 36.352 184.32 102.912 251.392l224.768 227.84c6.656 6.656 14.848 9.728 23.552 9.728h2.048c8.704 0 16.896-3.072 23.552-9.728l226.816-228.864c65.536-67.584 101.888-156.16 101.888-250.368 1.024-197.12-157.184-356.352-352.256-356.352z m212.992 569.344c-1.024 1.024-71.68 72.704-212.992 215.04l-211.968-214.016c-56.832-57.856-87.552-133.632-87.552-214.016 0-166.912 134.656-303.104 299.52-303.104s299.52 135.68 299.52 303.104c0 80.384-30.72 156.16-86.528 212.992z" fill="#2a82e4" p-id="6103"></path></svg>