<?xml version="1.0" standalone="no"?><!DOCTYPE svg PUBLIC "-//W3C//DTD SVG 1.1//EN" "http://www.w3.org/Graphics/SVG/1.1/DTD/svg11.dtd"><svg t="1715737015744" class="icon" viewBox="0 0 1024 1024" version="1.1" xmlns="http://www.w3.org/2000/svg" p-id="5895" xmlns:xlink="http://www.w3.org/1999/xlink" width="200" height="200"><path d="M966.21 156.23c-8.07-28.09-26.59-51.37-52.16-65.53-25.57-14.17-55.13-17.52-83.22-9.46-28.09 8.07-51.37 26.59-65.53 52.16-14.17 25.57-17.52 55.13-9.46 83.22 5.03 17.51 14.11 33.14 26.43 45.86l-136.2 245.91c-17.32-3.69-35.39-3.1-52.9 1.92-10.49 3.01-20.31 7.48-29.23 13.23l-102.6-86.5c10.3-23.36 12.11-49.33 4.98-74.17-8.07-28.1-26.59-51.37-52.16-65.53-25.57-14.17-55.13-17.52-83.22-9.46-28.1 8.07-51.36 26.59-65.53 52.16s-17.53 55.13-9.46 83.22c5.03 17.51 14.12 33.15 26.45 45.87l-74.32 134.2c-45.82-9.69-94.59 10.99-118.43 54.03-29.24 52.79-10.08 119.51 42.7 148.75 16.45 9.11 34.56 13.75 52.86 13.75 10.14 0 20.34-1.42 30.36-4.29 28.1-8.07 51.37-26.59 65.53-52.16 23.85-43.05 15.5-95.37-17.03-129.07l74.32-134.2c7.43 1.59 14.99 2.4 22.59 2.4 10.14 0 20.34-1.42 30.36-4.29 10.13-2.91 19.63-7.18 28.31-12.65l103.08 86.91c-9.92 23.1-11.58 48.7-4.54 73.19 8.07 28.09 26.59 51.37 52.16 65.53 16.45 9.11 34.56 13.75 52.86 13.75 10.14 0 20.34-1.43 30.36-4.3 28.09-8.07 51.37-26.59 65.53-52.16 23.85-43.06 15.49-95.39-17.04-129.09L838.25 293.5c7.43 1.59 15 2.4 22.61 2.4 10.14 0 20.34-1.42 30.36-4.29 28.1-8.07 51.37-26.59 65.53-52.16 14.17-25.57 17.53-55.13 9.46-83.22z m-741.1 576.16c-5.88 10.61-15.54 18.3-27.2 21.65-11.67 3.35-23.93 1.96-34.55-3.92-21.91-12.14-29.87-39.84-17.73-61.75 5.88-10.61 15.54-18.3 27.2-21.65 4.16-1.19 8.39-1.78 12.6-1.78 7.6 0 15.11 1.92 21.95 5.7 21.92 12.14 29.87 39.84 17.73 61.75z m148.55-295.67c-11.67 3.34-23.94 1.95-34.55-3.93s-18.3-15.54-21.65-27.2c-3.34-11.67-1.95-23.94 3.93-34.55s15.54-18.3 27.2-21.65c4.16-1.19 8.39-1.78 12.6-1.78 7.6 0 15.12 1.93 21.95 5.71 10.61 5.88 18.3 15.54 21.65 27.2 3.34 11.67 1.95 23.94-3.93 34.55s-15.54 18.3-27.2 21.65zM663.09 637.5c-5.88 10.61-15.54 18.3-27.2 21.65-11.67 3.35-23.94 1.96-34.55-3.92-10.61-5.88-18.3-15.54-21.65-27.2-3.34-11.67-1.95-23.93 3.93-34.55 8.28-14.96 23.81-23.41 39.81-23.41 7.44 0 14.98 1.83 21.94 5.68 10.61 5.88 18.31 15.53 21.65 27.2s1.95 23.93-3.93 34.55z m237.66-429.06c-5.88 10.61-15.54 18.3-27.2 21.65-11.67 3.34-23.93 1.95-34.55-3.93-10.61-5.88-18.31-15.53-21.65-27.2s-1.95-23.94 3.93-34.55 15.54-18.3 27.2-21.65c4.16-1.19 8.39-1.78 12.6-1.78 7.6 0 15.12 1.92 21.94 5.71 10.61 5.88 18.3 15.54 21.65 27.2 3.35 11.67 1.96 23.94-3.92 34.55z" fill="#2a82e4" p-id="5896"></path></svg>