<?xml version="1.0" standalone="no"?><!DOCTYPE svg PUBLIC "-//W3C//DTD SVG 1.1//EN" "http://www.w3.org/Graphics/SVG/1.1/DTD/svg11.dtd"><svg t="1715737000774" class="icon" viewBox="0 0 1024 1024" version="1.1" xmlns="http://www.w3.org/2000/svg" p-id="5688" xmlns:xlink="http://www.w3.org/1999/xlink" width="200" height="200"><path d="M526.55 938.13c-60.06 0-118.34-11.77-173.23-34.99-52.99-22.41-100.58-54.5-141.44-95.35-40.86-40.86-72.94-88.44-95.35-141.44-23.21-54.89-34.99-113.17-34.99-173.23s11.77-118.34 34.99-173.23c22.41-52.99 54.5-100.58 95.35-141.44s88.44-72.94 141.44-95.35c54.89-23.21 113.17-34.98 173.23-34.98S644.89 59.89 699.78 83.1c52.99 22.42 100.58 54.5 141.44 95.35 40.86 40.86 72.94 88.44 95.35 141.44 23.21 54.88 34.99 113.17 34.99 173.23s-11.77 118.34-34.99 173.23c-22.41 52.99-54.5 100.58-95.35 141.44-40.86 40.86-88.44 72.94-141.44 95.35-54.89 23.22-113.17 34.99-173.23 34.99z m0-818c-205.67 0-373 167.33-373 373s167.33 373 373 373 373-167.33 373-373-167.33-373-373-373z" fill="#2a82e4" p-id="5689"></path><path d="M398.55 493.13c0 70.69 57.31 128 128 128s128-57.31 128-128-57.31-128-128-128-128 57.31-128 128z" fill="#2a82e4" p-id="5690"></path></svg>