<?xml version="1.0" standalone="no"?><!DOCTYPE svg PUBLIC "-//W3C//DTD SVG 1.1//EN" "http://www.w3.org/Graphics/SVG/1.1/DTD/svg11.dtd"><svg t="1714359439785" class="icon" viewBox="0 0 1024 1024" version="1.1" xmlns="http://www.w3.org/2000/svg" p-id="18418" xmlns:xlink="http://www.w3.org/1999/xlink" width="200" height="200"><path d="M937.51 114.63a39.82 39.82 0 0 0-28.16-11.66H93c-21.99 0-39.82 17.83-39.82 39.82v139.38c0 22 17.83 39.82 39.82 39.82h816.35a39.82 39.82 0 0 0 28.16-11.66 39.78 39.78 0 0 0 11.66-28.15V142.79a39.76 39.76 0 0 0-11.66-28.16zM278.62 224.92a24.883 24.883 0 0 1-21.55 12.45H182.7c-13.75 0-24.89-11.15-24.89-24.89 0-13.75 11.14-24.89 24.89-24.89h74.37c8.89 0 17.11 4.74 21.55 12.44 4.45 7.7 4.45 17.19 0 24.89zM457.35 707.77H93a39.82 39.82 0 0 0-28.16 11.66 39.82 39.82 0 0 0-11.66 28.16v139.38c0 10.56 4.2 20.69 11.66 28.15A39.82 39.82 0 0 0 93 926.78h442.78c-49.08-51.59-79.27-121.33-79.27-198.16 0-7.02 0.34-13.96 0.84-20.85z m-223.38 134.3H159.5c-13.75 0-24.89-11.15-24.89-24.89 0-13.75 11.14-24.88 24.89-24.88h74.46c13.75 0 24.89 11.13 24.89 24.88 0.01 13.74-11.13 24.89-24.88 24.89zM909.36 405.32H93c-21.99 0-39.82 17.83-39.82 39.82v139.38c0 10.56 4.2 20.69 11.66 28.16A39.862 39.862 0 0 0 93 624.34h383.09C517.86 517.06 622.08 441 744.14 441c80.29 0 152.86 32.93 205.04 85.98v-81.85c0-10.56-4.2-20.69-11.66-28.16a39.853 39.853 0 0 0-28.16-11.65zM268.77 527.27a24.89 24.89 0 0 1-21.56 12.44h-74.36c-13.75 0-24.89-11.14-24.89-24.89 0-13.74 11.14-24.89 24.89-24.89h74.36c8.89 0 17.11 4.75 21.56 12.45 4.45 7.7 4.45 17.18 0 24.89z" fill="#3475EC" p-id="18419"></path><path d="M929.59 674.44c-20.3 1.99-39.88-8.15-49.98-25.87-11.36-18.38-9.95-41.91 3.53-58.8 2.76-6.75 0.58-14.5-5.29-18.82a187.424 187.424 0 0 0-65.27-38.22c-8.28-2.95-17.44 0.86-21.17 8.82-8.78 18.76-27.51 30.87-48.22 31.17a51.138 51.138 0 0 1-46.45-31.17c-3.35-8.45-12.92-12.59-21.37-9.24-0.33 0.13-0.65 0.27-0.97 0.43a187.488 187.488 0 0 0-65.27 38.22c-7.13 5.1-8.77 15.02-3.67 22.15l0.14 0.2c13.65 16.82 15.07 40.47 3.53 58.8a52.337 52.337 0 0 1-49.98 25.87c-9.03-1.07-17.31 5.15-18.82 14.11a298.621 298.621 0 0 0-3.53 37.63c0.3 12.81 1.48 25.58 3.53 38.23 1.77 8.73 9.97 14.62 18.82 13.52a53.515 53.515 0 0 1 49.98 25.87c11.18 18.42 9.78 41.85-3.53 58.8-5.21 7.05-3.72 17 3.33 22.21 0.06 0.04 0.13 0.09 0.19 0.14 19.3 15.83 41.46 27.8 65.27 35.28 8.12 3.22 17.32-0.72 20.58-8.82a55.28 55.28 0 0 1 48.22-30.58 50.553 50.553 0 0 1 47.04 30.58 15.86 15.86 0 0 0 15.29 10.58 6.5 6.5 0 0 0 5.29 0 195.122 195.122 0 0 0 65.27-37.63c7.13-5.1 8.77-15.02 3.67-22.15-0.05-0.07-0.09-0.13-0.14-0.19-13.31-16.95-14.71-40.38-3.53-58.81 10.41-17.4 29.77-27.41 49.98-25.87 8.84 1.1 17.04-4.79 18.82-13.52 1.97-12.65 3.15-25.42 3.53-38.22 1.02-13.5 1.02-27.06 0-40.57-1.5-8.98-9.78-15.19-18.82-14.13zM742.98 794.16c-36.19 0-65.53-29.34-65.53-65.53s29.34-65.54 65.53-65.54 65.53 29.35 65.53 65.54c0.01 36.19-29.33 65.53-65.53 65.53z" fill="#3475EC" p-id="18420"></path></svg>