<?xml version="1.0" standalone="no"?><!DOCTYPE svg PUBLIC "-//W3C//DTD SVG 1.1//EN" "http://www.w3.org/Graphics/SVG/1.1/DTD/svg11.dtd"><svg t="1714440652595" class="icon" viewBox="0 0 1061 1024" version="1.1" xmlns="http://www.w3.org/2000/svg" p-id="6205" xmlns:xlink="http://www.w3.org/1999/xlink" width="207.2265625" height="200"><path d="M939.425185 796.444444H122.500741C57.230222 796.444444 0 745.775407 0 687.824593V108.619852C0 50.669037 57.192296 0 122.500741 0h816.924444C1004.695704 0 1061.925926 50.669037 1061.925926 108.619852v579.204741C1061.925926 745.775407 1004.73363 796.444444 939.425185 796.444444z m-519.888592-137.102222c16.308148 0 40.808296-16.346074 40.808296-40.846222V373.418667c0-24.500148-16.308148-40.846222-40.808296-40.846223-24.538074 0-40.846222 16.346074-40.846223 40.846223v245.077333c0 24.500148 16.308148 40.846222 40.846223 40.846222z m179.693037 0c24.500148 0 40.846222-16.346074 40.846222-40.846222v-122.538667c0-24.500148-16.308148-40.846222-40.846222-40.846222-24.500148 0-40.846222 16.308148-40.846223 40.846222v122.500741c0 24.538074 16.308148 40.884148 40.846223 40.884148z m179.693037 0c24.538074 0 40.846222-16.346074 40.846222-40.846222V577.611852c0-24.500148-16.308148-40.846222-40.846222-40.846222-24.500148 0-40.808296 16.308148-40.808297 40.846222v40.846222c0 24.500148 16.308148 40.846222 40.808297 40.846222z m-539.117037 0c16.308148 0 40.846222-16.346074 40.846222-40.846222V250.88c0-24.500148-16.308148-40.846222-40.846222-40.846222-24.500148 0-40.846222 16.346074-40.846223 40.846222v367.616c0 24.500148 16.308148 40.846222 40.846223 40.846222zM265.481481 872.296296h530.962963a75.851852 75.851852 0 1 1 0 151.703704H265.481481a75.851852 75.851852 0 1 1 0-151.703704z" fill="#1296db" p-id="6206"></path></svg>