<?xml version="1.0" standalone="no"?><!DOCTYPE svg PUBLIC "-//W3C//DTD SVG 1.1//EN" "http://www.w3.org/Graphics/SVG/1.1/DTD/svg11.dtd"><svg t="1711352807147" class="icon" viewBox="0 0 1024 1024" version="1.1" xmlns="http://www.w3.org/2000/svg" p-id="1662" xmlns:xlink="http://www.w3.org/1999/xlink" width="128" height="128"><path d="M871.91900791 940.66666667H151.99100088a89.99100088 89.99100088 0 0 1-89.99100088-89.99100088v-224.97750264a44.99550088 44.99550088 0 0 1 89.99100088 0v224.97750264h719.92800703v-224.97750264a44.99550088 44.99550088 0 0 1 89.99100088 0v224.97750264a89.99100088 89.99100088 0 0 1-89.99100088 89.99100088z" fill="#1CD8D2" p-id="1663"></path><path d="M725.36866279 470.82365124l-182.36676269 187.94620547a42.07079268 42.07079268 0 0 1-60.78892148-1e-8L299.89121065 470.82365124a45.31046924 45.31046924 0 0 1 0-62.67873252 42.11578828 42.11578828 0 0 1 60.78892148 0l109.06909277 112.48875088V83.63736969a42.92570742 42.92570742 0 0 1 85.80641924 1e-8v436.90630957l109.02409805-112.48875176a42.11578828 42.11578828 0 0 1 60.7889206 0 45.31046924 45.31046924 0 0 1 0 62.76872373z" fill="#1CD8D2" p-id="1664"></path></svg>