<?xml version="1.0" standalone="no"?><!DOCTYPE svg PUBLIC "-//W3C//DTD SVG 1.1//EN" "http://www.w3.org/Graphics/SVG/1.1/DTD/svg11.dtd"><svg t="1712028358937" class="icon" viewBox="0 0 1024 1024" version="1.1" xmlns="http://www.w3.org/2000/svg" p-id="2076" xmlns:xlink="http://www.w3.org/1999/xlink" width="128" height="128"><path d="M811.95946666 606.26261333a176.9472 176.9472 0 1 0 176.9472 176.89258667 176.89258667 176.89258667 0 0 0-176.9472-176.89258667z m-47.56821334 265.74848l-38.93930666 2.18453334a4.20522667 4.20522667 0 0 1-4.47829334-3.93216v-0.49152l2.18453335-38.99392 102.89151999-102.89152 41.23306667 41.17845333z m129.87050668-130.03434666L885.14133332 751.2064l-41.17845333-41.17845333 9.28426667-9.28426667a29.16352 29.16352 0 0 1 41.23306666 41.23306667z" fill="#3997FD" p-id="2077"></path><path d="M574.28224 794.07786667a248.65450667 248.65450667 0 0 1 316.75733332-239.15178667V146.74602667a70.99733333 70.99733333 0 0 0-70.99733332-70.99733334H225.19381333a70.99733333 70.99733333 0 0 0-70.99733334 70.99733334v740.01066666a70.99733333 70.99733333 0 0 0 70.99733333 70.99733334h410.58304001a247.3984 247.3984 0 0 1-61.49461333-163.67616zM293.18741333 278.20032h458.75199999a30.85653333 30.85653333 0 0 1 0 61.65845333h-458.75199999a30.85653333 30.85653333 0 0 1 0-61.65845333z m236.53034666 242.59242667H293.18741333a30.85653333 30.85653333 0 0 1 0-61.65845334h236.53034666a30.85653333 30.85653333 0 1 1 0 61.65845334z" fill="#3997FD" p-id="2078"></path></svg>