<?xml version="1.0" standalone="no"?><!DOCTYPE svg PUBLIC "-//W3C//DTD SVG 1.1//EN" "http://www.w3.org/Graphics/SVG/1.1/DTD/svg11.dtd"><svg t="1712028316805" class="icon" viewBox="0 0 1024 1024" version="1.1" xmlns="http://www.w3.org/2000/svg" p-id="1919" xmlns:xlink="http://www.w3.org/1999/xlink" width="128" height="128"><path d="M937.23434667 410.11424404L835.20578516 308.08568252l102.02856064-102.02856065c32.95496162-32.95496162 32.95496162-86.38593926 0-119.34090088-32.95496162-32.95496162-86.38593926-32.95496162-119.34090088 0L522.17759023 382.51995576C477.62248291 357.56206543 426.1248626 343.32552177 371.37568643 343.32552177 200.53716612 343.32552177 62.03844776 481.82424013 62.03844776 652.66276133s138.49871836 309.33723867 309.33723867 309.33723867 309.33723867-138.49871836 309.33723867-309.33723867c0-54.74917617-14.23654365-106.24679648-39.19443398-150.80190381l74.43427323-74.43427325 102.02856065 102.02856065c16.43354121 16.43354121 38.0519956 24.69425098 59.67045 24.69425098s43.14902959-8.26071065 59.67045-24.69425098C970.1893083 496.5001833 970.1893083 443.06920567 937.23434667 410.11424404zM470.76785088 752.0549249C444.22812177 778.68253408 408.90040244 793.27059717 371.37568643 793.27059717s-72.85243536-14.58806309-99.39216446-41.21567227C245.35591367 725.5151958 230.76785059 690.18747734 230.76785059 652.66276133s14.58806309-72.85243536 41.21567226-99.39216446C298.52325195 526.6429877 333.85097041 512.05492461 371.37568643 512.05492461s72.85243536 14.58806309 99.39216445 41.21567226C497.39545918 579.81032597 511.98352227 615.13804443 511.98352227 652.66276133S497.39545918 725.5151958 470.76785088 752.0549249z" fill="#d81e06" p-id="1920"></path></svg>