<?xml version="1.0" standalone="no"?><!DOCTYPE svg PUBLIC "-//W3C//DTD SVG 1.1//EN" "http://www.w3.org/Graphics/SVG/1.1/DTD/svg11.dtd"><svg t="1711070577605" class="icon" viewBox="0 0 1024 1024" version="1.1" xmlns="http://www.w3.org/2000/svg" p-id="1476" xmlns:xlink="http://www.w3.org/1999/xlink" width="128" height="128"><path d="M686.24 334.4A174.24 174.24 0 1 0 393.92 464a262.08 262.08 0 0 0-179.52 240 33.12 33.12 0 1 0 66.72 0c0-103.68 96-187.68 220.8-192h24a215.52 215.52 0 0 1 116.64 32.64l7.68 5.28a186.24 186.24 0 0 1 93.12 155.04 33.12 33.12 0 0 0 66.72 0 252.48 252.48 0 0 0-125.76-216.96h-2.4a213.12 213.12 0 0 0-48-25.92 173.28 173.28 0 0 0 52.32-127.68zM512 244.16A90.24 90.24 0 1 1 421.76 334.4 90.24 90.24 0 0 1 512 244.16z" fill="#ffca39" p-id="1477"></path><path d="M860.96 47.36H804.8a36 36 0 0 0 0 72h56.16a60 60 0 0 1 60 59.52v544.8a60 60 0 0 1-60 59.52H163.04a60 60 0 0 1-60-59.52V178.88a60 60 0 0 1 60-59.52h457.92a36 36 0 0 0 0-72H163.04A132 132 0 0 0 32 178.88v544.8a132 132 0 0 0 132 131.52h312v48H316.64a36 36 0 0 0 0 72h391.68a36 36 0 1 0 0-72h-160.32v-48h312.96A132 132 0 0 0 992 723.68V178.88A132 132 0 0 0 860.96 47.36z" fill="#438CFF" p-id="1478"></path></svg>