<?xml version="1.0" standalone="no"?><!DOCTYPE svg PUBLIC "-//W3C//DTD SVG 1.1//EN" "http://www.w3.org/Graphics/SVG/1.1/DTD/svg11.dtd"><svg t="1715666493175" class="icon" viewBox="0 0 1024 1024" version="1.1" xmlns="http://www.w3.org/2000/svg" p-id="5100" xmlns:xlink="http://www.w3.org/1999/xlink" width="200" height="200"><path d="M451.710167 31.133074a34.402535 34.402535 0 0 1-26.375277 38.501561 124.94708 124.94708 0 0 1-26.106888 0.512378H65.645405a34.158546 34.158546 0 0 1-29.278753-30.693893A34.841717 34.841717 0 0 1 60.228836 2.000715 107.184636 107.184636 0 0 1 87.824061 0.951559H401.472706a84.566799 84.566799 0 0 1 31.084277 2.879078 34.597727 34.597727 0 0 1 17.079272 18.982392c0.731969 2.757083 1.366342 5.538564 2.073912 8.320045z m-145.173819 223.982464a34.158546 34.158546 0 0 1-27.351235 36.598441l-44.747695 0.268389H111.417856c-39.038338 0-69.219853 5.562963-75.100002-30.449904a33.426577 33.426577 0 0 1 3.733041-20.031547c12.199481-24.88694 41.649027-18.714003 76.075961-18.714003H224.092259a175.355334 175.355334 0 0 1 65.877195 4.416212 35.573685 35.573685 0 0 1 15.176153 19.519169c0.390383 2.830279 0.902762 5.611761 1.390741 8.393243z m705.495962-167.059687a40.136291 40.136291 0 0 0-39.989898-40.014297 38.769949 38.769949 0 0 0-20.007148 5.514166L57.813338 525.456027c-13.248636 7.0513-45.992042 20.90991-45.918844 35.964069s32.987395 28.741976 46.358026 35.476089l232.107317 127.020992a49.041912 49.041912 0 0 0 17.982034 3.977031 40.233887 40.233887 0 0 0 36.012867-21.959065 41.087851 41.087851 0 0 0-17.982034-54.0193l-161.984703-91.496105 649.15876-344.025352-408.072625 495.957683a43.722938 43.722938 0 0 0-9.491196 26.009293v245.624342a40.014296 40.014296 0 1 0 80.028592 0v-230.448188L910.630227 224.592437l-84.054421 672.947747-243.989611-116.48064a33.597369 33.597369 0 0 0-17.494056-3.952632 40.355882 40.355882 0 0 0-38.062379 52.970145 38.379566 38.379566 0 0 0 20.007148 23.00822l294.617456 139.074079a33.377779 33.377779 0 0 0 17.494055 3.97703 41.600229 41.600229 0 0 0 18.543211-4.538206 38.867545 38.867545 0 0 0 20.909909-29.473945L1012.178703 93.130835v-4.879793z m0 0" fill="#2a82e4" p-id="5101"></path></svg>