<?xml version="1.0" standalone="no"?><!DOCTYPE svg PUBLIC "-//W3C//DTD SVG 1.1//EN" "http://www.w3.org/Graphics/SVG/1.1/DTD/svg11.dtd"><svg t="1698740570261" class="icon" viewBox="0 0 1024 1024" version="1.1" xmlns="http://www.w3.org/2000/svg" p-id="2303" xmlns:xlink="http://www.w3.org/1999/xlink" width="128" height="128"><path d="M501.5 61C381.855 61 285 157.974 285 277.5 285 397.145 381.974 494 501.5 494 621.145 494 718 397.026 718 277.5 718.119 157.855 621.145 61 501.5 61z" fill="#A5E8D0" p-id="2304"></path><path d="M773.755 620.342L835.21 577l124.32 176.271H471v-75.2h343.47l-40.715-57.73zM656.774 921.929l-61.453 43.342L471 789h488.53v75.2H616.058l40.715 57.729z m71.594-331.533l-38.736 64.456C634.09 621.472 570.596 603.6 504.389 603.6c-198.808 0-360.366 161.527-361.79 361.668l-75.198-0.536C69.119 723.385 264.141 528.4 504.389 528.4c79.955 0 156.823 21.636 223.98 61.996z" fill="#4CA7FF" p-id="2305"></path></svg>