<?xml version="1.0" standalone="no"?><!DOCTYPE svg PUBLIC "-//W3C//DTD SVG 1.1//EN" "http://www.w3.org/Graphics/SVG/1.1/DTD/svg11.dtd"><svg t="1710905308975" class="icon" viewBox="0 0 1024 1024" version="1.1" xmlns="http://www.w3.org/2000/svg" p-id="14060" xmlns:xlink="http://www.w3.org/1999/xlink" width="128" height="128"><path d="M17.560462 280.007111v425.927111l301.681778-212.935111L17.560462 280.007111z m38.4-106.894222h909.368889c30.776889 0 57.742222-24.234667 58.652445-56.149333 0.568889-15.701333-5.12-30.947556-15.644445-42.382223A54.784 54.784 0 0 0 968.173796 56.888889H58.691129c-30.72 0-57.685333 24.177778-58.595556 56.092444-0.568889 15.701333 5.12 30.947556 15.701334 42.382223a54.784 54.784 0 0 0 40.163555 17.749333z m912.213334 677.831111H58.63424c-30.72 0-57.742222 24.177778-58.595556 56.092444-0.568889 15.701333 5.12 30.947556 15.701334 42.382223 10.410667 11.264 24.917333 17.635556 40.163555 17.692444h909.368889c30.776889 0 57.742222-24.177778 58.595556-56.092444 0.568889-15.701333-5.12-30.890667-15.644445-42.325334a54.840889 54.840889 0 0 0-40.106666-17.749333zM466.356907 433.436444h482.076444C990.189796 433.493333 1024.038684 407.324444 1024.038684 375.182222c0-32.085333-33.848889-58.254222-75.605333-58.254222H466.129351c-41.699556 0-75.548444 26.168889-75.434667 58.368 0 32.142222 33.905778 58.140444 75.662223 58.140444z m482.076444 260.096c41.756444 0 75.605333-26.168889 75.605333-58.254222 0-32.142222-33.848889-58.254222-75.605333-58.254222H466.129351c-26.965333 0-51.882667 11.150222-65.308444 29.184a46.990222 46.990222 0 0 0 0 58.254222c13.539556 18.033778 38.456889 29.013333 65.536 29.013334h482.076444z" fill="#409eff" p-id="14061"></path></svg>