<?xml version="1.0" standalone="no"?><!DOCTYPE svg PUBLIC "-//W3C//DTD SVG 1.1//EN" "http://www.w3.org/Graphics/SVG/1.1/DTD/svg11.dtd"><svg t="1712844282042" class="icon" viewBox="0 0 1024 1024" version="1.1" xmlns="http://www.w3.org/2000/svg" p-id="1634" xmlns:xlink="http://www.w3.org/1999/xlink" width="128" height="128"><path d="M512 962A450 450 0 1 1 512 62a450 450 0 0 1 0 900zM330.90714248 387.54285752L455.3 512 330.90714248 636.45714248a40.05 40.05 0 1 0 56.63571504 56.63571504L512 568.7l124.45714248 124.39285752a40.05 40.05 0 0 0 56.63571504-56.63571504L568.7 512l124.39285752-124.45714248a40.05 40.05 0 1 0-56.63571504-56.63571504L512 455.3 387.54285752 330.90714248a40.05 40.05 0 0 0-56.63571504 56.63571504z" fill="#FF2525" p-id="1635"></path></svg>