<?xml version="1.0" standalone="no"?><!DOCTYPE svg PUBLIC "-//W3C//DTD SVG 1.1//EN" "http://www.w3.org/Graphics/SVG/1.1/DTD/svg11.dtd"><svg t="1710725137033" class="icon" viewBox="0 0 1024 1024" version="1.1" xmlns="http://www.w3.org/2000/svg" p-id="1084" xmlns:xlink="http://www.w3.org/1999/xlink" width="128" height="128"><path d="M921 957H100.9C80.5 957 64 940.5 64 920.1s16.5-36.9 36.9-36.9H921c20.4 0 36.9 16.5 36.9 36.9-0.1 20.4-16.6 36.9-36.9 36.9zM561.2 182.4L85.7 657.8C65.6 677.9 66.3 839 66.3 839s162.4 1.9 182.5-18.1l475.5-475.5-163.1-163zM758.7 310.9l69.6-69.6c20.1-20.1 17-55.7-6.8-79.5L744.7 85c-23.8-23.8-59.4-26.8-79.5-6.8l-69.6 69.6 163.1 163.1z" fill="#67C23A" p-id="1085"></path></svg>