<?xml version="1.0" standalone="no"?><!DOCTYPE svg PUBLIC "-//W3C//DTD SVG 1.1//EN" "http://www.w3.org/Graphics/SVG/1.1/DTD/svg11.dtd"><svg t="1710723433705" class="icon" viewBox="0 0 1820 1024" version="1.1" xmlns="http://www.w3.org/2000/svg" p-id="1084" xmlns:xlink="http://www.w3.org/1999/xlink" width="227.5" height="128"><path d="M923.61023653-127.70725082h760.2437307v131.64393488H923.61023653z" fill="#5FFFBA" p-id="1085"></path><path d="M682.33158478 596.33439628H243.38133783c-60.47393401 0-109.63471473 49.16078288-109.63471686 109.63471473v438.74455504c0 60.47393401 49.16078288 109.63471473 109.63471687 109.63471688h438.74455505c60.47393401 0 109.63471473-49.16078288 109.63471471-109.63471688V705.96911101c0.20569405-60.47393401-48.95508884-109.63471473-109.42902282-109.63471473zM660.32236463 1061.81912597c0 33.73375938-27.35725462 61.09101402-61.09101395 61.09101399H326.48157197c-33.73375938 0-61.09101402-27.35725462-61.09101401-61.09101399V789.06934726c0-33.73375938 27.35725462-61.09101402 61.09101401-61.09101398h272.95547276c33.73375938 0 61.09101402 27.35725462 61.09101401 61.09101398v272.74977871z" fill="#FFD561" p-id="1086"></path><path d="M923.61023653 695.06734796h760.2437307v131.64393697H923.61023653z" fill="#5FFFBA" p-id="1087"></path><path d="M682.33158478-226.44020251H243.38133783c-60.47393401 0-109.63471473 49.16078288-109.63471686 109.63471474v438.7445551c0 60.47393401 49.16078288 109.63471473 109.63471687 109.63471474h438.74455505c60.47393401 0 109.63471473-49.16078288 109.63471471-109.63471474V-116.80548777c0.20569405-60.47393401-48.95508884-109.63471473-109.42902282-109.63471474zM660.32236463 239.04452725c0 33.73375938-27.35725462 61.09101402-61.09101395 61.09101398H326.48157197c-33.73375938 0-61.09101402-27.35725462-61.09101401-61.09101398V-33.70525361c0-33.73375938 27.35725462-61.09101402 61.09101401-61.09101402h272.95547276c33.73375938 0 61.09101402 27.35725462 61.09101401 61.09101402v272.74978086z" fill="#FFA28D" p-id="1088"></path><path d="M923.61023653 201.40258956h760.2437307v131.64393483H923.61023653zM923.61023653 1024.1771883h760.2437307v131.64393484H923.61023653z" fill="#5FFFBA" p-id="1089"></path></svg>