<?xml version="1.0" standalone="no"?><!DOCTYPE svg PUBLIC "-//W3C//DTD SVG 1.1//EN" "http://www.w3.org/Graphics/SVG/1.1/DTD/svg11.dtd"><svg t="1711352926089" class="icon" viewBox="0 0 1024 1024" version="1.1" xmlns="http://www.w3.org/2000/svg" p-id="1692" xmlns:xlink="http://www.w3.org/1999/xlink" width="128" height="128"><path d="M512 962C263.4875 962 62 760.5125 62 512S263.4875 62 512 62s450 201.4875 450 450-201.4875 450-450 450z m0-825.00000029C304.8875 136.99999971 136.99999971 304.8875 136.99999971 512s167.88750029 375.00000029 375.00000029 375.00000029 375.00000029-167.88750029 375.00000029-375.00000029S719.1125 136.99999971 512 136.99999971z m31.95 549.82500029a39.75000029 39.75000029 0 0 1-18.52499971 9.9l-0.15000029 0.07499971a40.46249971 40.46249971 0 0 1-45.03750029-8.24999942l-143.81249942-143.85000058a40.65000029 40.65000029 0 1 1 57.52499942-57.52499942L474.49999971 567.76249971V324.50000029a37.50000029 37.50000029 0 0 1 75.00000058 0v241.68749942l80.73749971-80.73749971a40.725 40.725 0 0 1 57.52500029 57.56249971l-143.81250029 143.81250029z" fill="#6DA8F5" p-id="1693"></path></svg>