<?xml version="1.0" standalone="no"?><!DOCTYPE svg PUBLIC "-//W3C//DTD SVG 1.1//EN" "http://www.w3.org/Graphics/SVG/1.1/DTD/svg11.dtd"><svg class="icon" width="64px" height="64.00px" viewBox="0 0 1024 1024" version="1.1" xmlns="http://www.w3.org/2000/svg"><path d="M0 512a512 512 0 1 0 1024 0 512 512 0 1 0-1024 0Z" fill="#F2ECFF" /><path d="M750.933333 460.8q0 9.1136-0.750933 18.193067 5.3248 0.7168 10.513067 1.9456 5.2224 1.194667 10.308266 2.8672 5.12 1.6384 10.0352 3.754666t9.6256 4.676267q4.7104 2.56 9.181867 5.495467 4.437333 2.9696 8.635733 6.314666t8.055467 7.031467q3.857067 3.754667 7.3728 7.748267 3.549867 4.061867 6.690133 8.3968 3.140267 4.334933 5.870934 8.942933 2.730667 4.573867 5.051733 9.4208 2.3552 4.8128 4.232533 9.8304 1.877333 5.0176 3.2768 10.171733 1.4336 5.188267 2.389334 10.4448 0.955733 5.256533 1.4336 10.581334 0.477867 5.358933 0.477866 10.717866 0 5.3248-0.477866 10.6496-0.477867 5.290667-1.4336 10.581334-0.9216 5.2224-2.3552 10.376533-1.365333 5.12-3.2768 10.1376-1.8432 4.983467-4.164267 9.796267-2.286933 4.778667-5.0176 9.386666-2.730667 4.608-5.802667 8.9088-3.140267 4.334933-6.621866 8.362667-3.4816 4.027733-7.338667 7.748267-3.822933 3.6864-7.9872 7.031466-4.130133 3.3792-8.567467 6.314667-4.437333 2.9696-9.1136 5.5296-4.676267 2.56-9.557333 4.676267-4.9152 2.1504-9.966933 3.822933-5.051733 1.706667-10.24 2.935467-5.188267 1.2288-10.478934 1.979733V716.8H341.333333q-6.724267 0-13.380266-0.682667-6.690133-0.6144-13.243734-1.9456-6.587733-1.297067-13.0048-3.242666t-12.629333-4.539734q-6.178133-2.56-12.117333-5.700266-5.905067-3.1744-11.4688-6.894934-5.597867-3.754667-10.786134-7.9872-5.154133-4.266667-9.898666-9.0112-4.778667-4.7104-9.0112-9.898666-4.266667-5.188267-7.9872-10.786134-3.754667-5.563733-6.894934-11.4688-3.140267-5.9392-5.7344-12.117333-2.56-6.212267-4.5056-12.629333-1.9456-6.417067-3.242666-12.970667-1.297067-6.587733-1.979734-13.277867Q204.8 586.990933 204.8 580.266667q0-5.632 0.477867-11.264 0.443733-5.632 1.365333-11.1616 0.955733-5.563733 2.321067-11.0592 1.365333-5.461333 3.208533-10.786134t4.096-10.513066q2.2528-5.154133 4.949333-10.103467 2.6624-4.983467 5.768534-9.693867 3.072-4.7104 6.519466-9.181866 3.4816-4.437333 7.2704-8.6016 3.822933-4.164267 7.953067-7.9872 4.164267-3.822933 8.6016-7.2704 4.437333-3.4816 9.181867-6.587734 4.7104-3.072 9.659733-5.768533 4.949333-2.696533 10.103467-4.949333 5.154133-2.286933 10.513066-4.130134 5.3248-1.8432 10.786134-3.242666 0.3072-5.2224 0.853333-10.4448t1.365333-10.410667q0.785067-5.188267 1.809067-10.308267 1.024-5.154133 2.321067-10.24 1.297067-5.085867 2.798933-10.103466 1.536-5.0176 3.2768-9.966934 1.774933-4.949333 3.754667-9.796266t4.1984-9.6256q2.218667-4.744533 4.676266-9.386667 2.423467-4.642133 5.085867-9.181867 2.6624-4.5056 5.5296-8.874666 2.8672-4.437333 5.9392-8.669867 3.072-4.266667 6.314667-8.362667 3.2768-4.096 6.724266-8.055466 3.4816-3.925333 7.099734-7.714134 3.652267-3.754667 7.4752-7.3728 3.7888-3.618133 7.7824-7.031466 3.9936-3.413333 8.123733-6.621867 4.130133-3.242667 8.430933-6.2464 4.266667-3.037867 8.704-5.870933 4.437333-2.798933 8.977067-5.4272 4.539733-2.594133 9.216-4.983467 4.676267-2.389333 9.454933-4.539733 4.778667-2.184533 9.659734-4.096 4.846933-1.9456 9.8304-3.652267 4.949333-1.706667 10.001066-3.1744 5.0176-1.467733 10.1376-2.730667 5.12-1.194667 10.24-2.184533 5.154133-0.989867 10.3424-1.706667 5.188267-0.750933 10.410667-1.262933 5.2224-0.477867 10.478933-0.750933Q523.810133 238.933333 529.066667 238.933333q5.461333 0 10.888533 0.273067 5.461333 0.273067 10.8544 0.785067 5.4272 0.546133 10.820267 1.365333 5.393067 0.785067 10.717866 1.8432 5.358933 1.058133 10.615467 2.389333 5.290667 1.3312 10.513067 2.901334 5.188267 1.570133 10.3424 3.413333 5.12 1.8432 10.1376 3.925333 5.051733 2.048 9.966933 4.437334 4.9152 2.286933 9.728 4.881066 4.778667 2.56 9.489067 5.358934 4.676267 2.798933 9.216 5.802666 4.5056 3.072 8.874666 6.280534 4.369067 3.242667 8.6016 6.690133 4.1984 3.4816 8.226134 7.133867t7.8848 7.509333q3.857067 3.857067 7.509333 7.850667 3.652267 4.096 7.133867 8.260266 3.413333 4.232533 6.690133 8.6016 3.242667 4.369067 6.280533 8.874667 3.003733 4.539733 5.802667 9.216 2.798933 4.676267 5.393067 9.489067 2.56 4.778667 4.881066 9.728 2.321067 4.9152 4.437334 9.966933 2.048 5.0176 3.8912 10.1376 1.8432 5.12 3.413333 10.3424 1.570133 5.2224 2.901333 10.513067 1.3312 5.256533 2.389334 10.581333 1.058133 5.358933 1.877333 10.752 0.785067 5.393067 1.3312 10.820267 0.512 5.4272 0.785067 10.8544 0.273067 5.461333 0.273066 10.888533z" fill="#BC86F9" /><path d="M204.8 580.266667a136.533333 136.533333 0 1 0 273.066667 0 136.533333 136.533333 0 1 0-273.066667 0Z" fill="#DBBBFF" /><path d="M494.933333 341.333333a17.066667 17.066667 0 0 0-17.066666 17.066667v136.533333h-44.475734q-2.423467 0-4.778666 0.682667-2.389333 0.682667-4.437334 2.048-2.048 1.297067-3.652266 3.1744-1.604267 1.8432-2.628267 4.096-1.024 2.218667-1.365333 4.642133-0.341333 2.389333 0 4.846934 0.341333 2.423467 1.365333 4.676266 1.024 2.218667 2.594133 4.096l95.675734 110.455467q2.423467 2.798933 5.802666 4.334933 3.413333 1.536 7.099734 1.536 3.720533 0 7.099733-1.536 3.3792-1.536 5.802667-4.334933l95.675733-110.4896q1.604267-1.8432 2.628267-4.096 1.024-2.218667 1.365333-4.642133 0.341333-2.423467 0-4.846934t-1.365333-4.676266q-1.024-2.218667-2.628267-4.096-1.604267-1.8432-3.6864-3.1744-2.048-1.3312-4.437333-2.013867-2.321067-0.682667-4.778667-0.682667H580.266667v-136.533333a17.066667 17.066667 0 0 0-17.066667-17.066667h-68.266667z" fill="#FFFFFF" /></svg>