<?xml version="1.0" standalone="no"?><!DOCTYPE svg PUBLIC "-//W3C//DTD SVG 1.1//EN" "http://www.w3.org/Graphics/SVG/1.1/DTD/svg11.dtd"><svg t="1710725953465" class="icon" viewBox="0 0 1066 1024" version="1.1" xmlns="http://www.w3.org/2000/svg" p-id="1147" xmlns:xlink="http://www.w3.org/1999/xlink" width="133.25" height="128"><path d="M247.893333 853.333333c83.626667 46.336 166.272 69.546667 247.893334 69.546667 81.664 0 172.117333-23.210667 271.36-69.546667-73.685333 113.792-164.138667 170.666667-271.36 170.666667-107.178667 0-189.824-56.874667-247.893334-170.666667z" fill="#FFE206" p-id="1148"></path><path d="M635.861333 128a281.173333 281.173333 0 0 1 279.637334 252.16A220.928 220.928 0 0 1 845.824 810.666667h-411.648A220.842667 220.842667 0 0 1 349.013333 385.962667 281.130667 281.130667 0 0 1 629.162667 128h6.698666z" fill="#51E6F9" p-id="1149"></path><path d="M482.048 0c175.232 0 318.293333 137.813333 326.741333 310.912A262.272 262.272 0 0 1 697.344 810.666667h-172.928v-204.672l46.08 42.154666c15.274667 13.952 39.765333 14.634667 55.893333 1.578667a35.285333 35.285333 0 0 0 5.333334-51.029333l-3.413334-3.541334-115.882666-106.069333a43.690667 43.690667 0 0 0-57.856 0l-115.925334 106.069333a35.157333 35.157333 0 0 0-3.413333 49.493334l3.413333 3.498666c16 14.634667 41.856 14.634667 57.856 0l46.165334-42.24V810.666667H283.178667A262.272 262.272 0 0 1 155.050667 319.530667l-0.085334 7.594666A327.125333 327.125333 0 0 1 482.048 0z" fill="#186FE8" opacity=".803" p-id="1150"></path></svg>