<?xml version="1.0" standalone="no"?><!DOCTYPE svg PUBLIC "-//W3C//DTD SVG 1.1//EN" "http://www.w3.org/Graphics/SVG/1.1/DTD/svg11.dtd"><svg t="1711353131493" class="icon" viewBox="0 0 1024 1024" version="1.1" xmlns="http://www.w3.org/2000/svg" p-id="1384" xmlns:xlink="http://www.w3.org/1999/xlink" width="128" height="128"><path d="M706.55999999 685.53386667l248.2176 248.2176a33.3824 33.3824 0 0 1 0 46.62613333 33.3824 33.3824 0 0 1-46.62613333 0l-254.22506667-254.22506667A373.1456 373.1456 0 0 1 452.26666666 785.06666667 376.0128 376.0128 0 0 1 76.79999999 409.6C76.79999999 202.61546667 245.28213333 34.13333333 452.26666666 34.13333333S827.73333333 202.61546667 827.73333333 409.6a374.5792 374.5792 0 0 1-121.17333334 275.93386667z m-58.5728-36.11306667a309.11146667 309.11146667 0 0 0 114.00533334-239.8208A310.34026667 310.34026667 0 0 0 452.26666666 99.9424 309.99893333 309.99893333 0 0 0 142.60906666 409.6 309.99893333 309.99893333 0 0 0 452.26666666 719.2576c64.78506667 0 124.99626667-20.00213333 174.83093333-54.20373333a31.9488 31.9488 0 0 1 20.8896-15.63306667z" fill="#00BC71" p-id="1385"></path></svg>