<?xml version="1.0" standalone="no"?><!DOCTYPE svg PUBLIC "-//W3C//DTD SVG 1.1//EN" "http://www.w3.org/Graphics/SVG/1.1/DTD/svg11.dtd"><svg t="1714454834734" class="icon" viewBox="0 0 1024 1024" version="1.1" xmlns="http://www.w3.org/2000/svg" p-id="1370" xmlns:xlink="http://www.w3.org/1999/xlink" width="200" height="200"><path d="M899.307 201.829l-77.262-77.311c-30.639-30.622-80.287-30.622-110.912 0.018-0.031 0.049-0.081 0.08-0.13 0.129l-120.76 120.874-96.743-96.794c-30.494-30.607-80.059-30.706-110.667-0.196-0.065 0.066-0.132 0.13-0.196 0.196l-123.59 123.49-0.212 0.164c-0.113 0.049-0.05 0.199-0.164 0.261L124.663 406.606c-30.64 30.674-30.64 80.37 0 111.041l72.451 72.388 0.36 0.573 0.523 0.375L315.06 708.031l0.36 0.571 0.572 0.377L433.04 825.975c0.162 0.195 0.212 0.457 0.374 0.621 0.148 0.164 0.41 0.214 0.574 0.426l72.336 72.338c30.591 30.706 80.272 30.787 110.978 0.214 0.031-0.035 0.065-0.084 0.115-0.116l257.908-257.909c30.64-30.591 30.672-80.255 0.082-110.895 0-0.016-0.017-0.016-0.034-0.033l-96.843-96.843L899.405 313.02c30.59-30.772 30.541-80.469-0.098-111.191zM575.405 836.865c-9.51 9.432-24.868 9.371-34.303-0.151l-50.375-50.36 42.944-42.808c9.495-9.493 9.495-24.87 0-34.348-9.478-9.491-24.867-9.491-34.345 0l-42.9 42.839-75.062-75.107 77.247-77.11c9.371-9.522 9.371-24.824 0-34.36-9.524-9.341-24.781-9.341-34.302 0l-77.263 77.152-75.062-75.016 42.9-42.747c9.478-9.492 9.478-24.87 0-34.363-9.494-9.492-24.87-9.492-34.363 0l-42.852 42.761-50.227-50.222c-9.478-9.357-9.582-24.625-0.242-34.12 0.062-0.062 0.136-0.119 0.198-0.197l107.197-107.195 388.157 388.112-107.347 107.24z m269.978-556.84L733.397 392.072l-11.799 11.826-22.563 22.566h0.331L823.26 550.355c9.459 9.494 9.493 24.84 0.045 34.361l-97.58 97.538-388.053-388.112 97.538-97.539c9.309-9.522 24.594-9.673 34.087-0.347a1.3 1.3 0 0 1 0.166 0.151l123.695 123.695-0.105 0.287 26.598-26.536 7.764-7.766 112.049-111.956c9.464-9.461 24.823-9.461 34.301 0l71.727 71.728c9.401 9.402 9.418 24.626 0.029 34.026l-0.138 0.14z" fill="#8a8a8a" p-id="1371"></path></svg>