<?xml version="1.0" standalone="no"?><!DOCTYPE svg PUBLIC "-//W3C//DTD SVG 1.1//EN" "http://www.w3.org/Graphics/SVG/1.1/DTD/svg11.dtd"><svg t="1715736983768" class="icon" viewBox="0 0 1024 1024" version="1.1" xmlns="http://www.w3.org/2000/svg" p-id="5486" xmlns:xlink="http://www.w3.org/1999/xlink" width="200" height="200"><path d="M284.161317 892.094017H183.361758a93.887589 93.887589 0 0 0-51.359775-51.231776V183.169119c23.807896-9.15196 42.111816-29.247872 51.327775-51.231776h654.333137a96.319579 96.319579 0 0 0 87.999615 58.623743 94.623586 94.623586 0 0 0 95.295583-95.263583A94.591586 94.591586 0 0 0 925.66251 0.00192c-40.319824 0-75.199671 23.839896-87.999615 58.623744H183.361758A96.255579 96.255579 0 0 0 95.298143 0.09792 94.623586 94.623586 0 0 0 0.00256 95.361503c0 40.287824 23.839896 75.071672 58.655743 87.871615v657.565124A94.303587 94.303587 0 0 0 0.00256 928.733857 94.655586 94.655586 0 0 0 95.362143 1023.99744c40.319824 0 75.103671-23.839896 87.999615-58.623744h100.799559a36.767839 36.767839 0 0 0 36.60784-36.639839 36.767839 36.767839 0 0 0-36.63984-36.63984z m97.119575 47.615792c-3.647984 12.799944 9.15196 25.599888 21.951904 22.015903l152.159334-42.143815-131.903423-131.903423-42.271815 151.999335h0.064zM943.99843 333.440461c-16.447928-16.447928-43.999808-14.655936-62.303727 1.887992l-64.15972 64.06372 128.319439 128.223439 64.159719-64.06372c18.33592-18.36792 18.33592-45.855799 1.791992-62.303727L943.99843 333.440461zM467.424515 741.886674l124.671455 131.967423 317.022613-309.598646-128.255439-128.255439-313.502629 305.918662h0.064v-0.032z" fill="#2a82e4" p-id="5487"></path></svg>